<?xml version="1.0" encoding="UTF-8"?>
<svg version="1.1" xmlns="http://www.w3.org/2000/svg" width="334" height="104">
<path d="M0 0 C6.27 0 12.54 0 19 0 C19 2.31 19 4.62 19 7 C60.58 7 102.16 7 145 7 C145 11.29 145 15.58 145 20 C146.72226496 23.24849977 146.72226496 23.24849977 150 24 C150 26.31 150 28.62 150 31 C150.66 31 151.32 31 152 31 C156 36.41176471 156 36.41176471 156 39 C156.99 39.33 157.98 39.66 159 40 C160.98181693 44.38085848 161.28061603 48.22952746 161 53 C159.04417044 54.95582956 155.26195707 54.15470727 152.59068298 54.15821838 C151.80578651 54.16315636 151.02089003 54.16809434 150.21220881 54.17318195 C147.56196633 54.18863384 144.9117482 54.19693825 142.26147461 54.20532227 C140.36972334 54.21489476 138.47797423 54.22490446 136.58622742 54.23532104 C131.43357221 54.26244436 126.28090777 54.28341358 121.12822032 54.30332303 C115.7496526 54.32513694 110.37111357 54.35254803 104.99256897 54.37937927 C94.79990255 54.4293685 84.60722026 54.47428413 74.41452271 54.51740164 C62.81373395 54.56672089 51.21297397 54.62165865 39.61221302 54.67708123 C15.74150217 54.79099687 -8.12923626 54.89781494 -32 55 C-32.11214844 54.37609375 -32.22429687 53.7521875 -32.33984375 53.109375 C-32.85026199 50.71418298 -32.85026199 50.71418298 -35.5625 49.25 C-36.7690625 48.63125 -36.7690625 48.63125 -38 48 C-37.67 47.01 -37.34 46.02 -37 45 C-37.165 44.34 -37.33 43.68 -37.5 43 C-38.33615059 39.65539765 -36.63408376 36.88367722 -35 34 C-34.01 33.505 -34.01 33.505 -33 33 C-33 32.34 -33 31.68 -33 31 C-31.68 31 -30.36 31 -29 31 C-29.350625 30.46375 -29.70125 29.9275 -30.0625 29.375 C-31.28924249 26.26725237 -30.72856431 24.20568297 -30 21 C-29.34 21.66 -28.68 22.32 -28 23 C-27.01 23 -26.02 23 -25 23 C-23.87483915 21.16715557 -23.87483915 21.16715557 -23 19 C-23.33 18.01 -23.66 17.02 -24 16 C-24.203125 14.0625 -24.203125 14.0625 -24.25 12 C-24.28867188 10.9790625 -24.28867188 10.9790625 -24.328125 9.9375 C-23.89072838 7.35477713 -23.04235076 6.61107834 -21 5 C-18.82348633 4.65942383 -18.82348633 4.65942383 -16.33203125 4.70703125 C-15.43935547 4.71669922 -14.54667969 4.72636719 -13.62695312 4.73632812 C-12.23379883 4.7740332 -12.23379883 4.7740332 -10.8125 4.8125 C-9.87212891 4.82603516 -8.93175781 4.83957031 -7.96289062 4.85351562 C-5.64134962 4.88886904 -3.32096347 4.93821326 -1 5 C-0.67 3.35 -0.34 1.7 0 0 Z M2 6 C3 8 3 8 3 8 Z M-22 7 C-22 9.31 -22 11.62 -22 14 C-21.67 14 -21.34 14 -21 14 C-21 11.69 -21 9.38 -21 7 C-21.33 7 -21.66 7 -22 7 Z M-15 8 C-14 11 -14 11 -14 11 Z M4 8 C5 12 5 12 5 12 Z M8 13 C8.33 13.66 8.66 14.32 9 15 C9.33 14.34 9.66 13.68 10 13 C9.34 13 8.68 13 8 13 Z M-5 14 C-5.6814823 15.89179203 -5.6814823 15.89179203 -6 18 C-5.34 18.66 -4.68 19.32 -4 20 C-3.3185177 18.10820797 -3.3185177 18.10820797 -3 16 C-3.66 15.34 -4.32 14.68 -5 14 Z M46 14 C46.33 14.66 46.66 15.32 47 16 C47.33 15.34 47.66 14.68 48 14 C47.34 14 46.68 14 46 14 Z M25 15 C25 15.33 25 15.66 25 16 C30.28 16 35.56 16 41 16 C41 15.67 41 15.34 41 15 C35.72 15 30.44 15 25 15 Z M49 15 C49 15.33 49 15.66 49 16 C54.28 16 59.56 16 65 16 C65 15.67 65 15.34 65 15 C59.72 15 54.44 15 49 15 Z M82 15 C82 15.33 82 15.66 82 16 C86.95 16 91.9 16 97 16 C97 15.67 97 15.34 97 15 C92.05 15 87.1 15 82 15 Z M105 15 C105 15.33 105 15.66 105 16 C110.28 16 115.56 16 121 16 C121 15.67 121 15.34 121 15 C115.72 15 110.44 15 105 15 Z M-12 16 C-11 18 -11 18 -11 18 Z M-10 16 C-9 18 -9 18 -9 18 Z M-2 16 C-1 18 -1 18 -1 18 Z M1 16 C1 16.99 1 17.98 1 19 C5.29 19.33 9.58 19.66 14 20 C14.66 18.68 15.32 17.36 16 16 C11.05 16 6.1 16 1 16 Z M75.75 16.0625 C72.65981063 17.11597365 71.09178855 16.88336816 68 16 C68.7425 17.1446875 68.7425 17.1446875 69.5 18.3125 C71 21 71 21 71 24 C71.33 24.66 71.66 25.32 72 26 C71.236875 26.28875 70.47375 26.5775 69.6875 26.875 C66.84970692 27.96269013 66.84970692 27.96269013 64 30 C62.99325074 32.87319901 62.99325074 32.87319901 63 36 C64.31135412 38.36290685 64.31135412 38.36290685 66 40 C68.91171789 36.33019796 68.91171789 36.33019796 70 32 C70.66 32 71.32 32 72 32 C72.33 31.34 72.66 30.68 73 30 C80.59 30 88.18 30 96 30 C96 29.34 96 28.68 96 28 C101.445 27.01 101.445 27.01 107 26 C105.68 25.34 104.36 24.68 103 24 C102.01 24.33 101.02 24.66 100 25 C98.08093083 25.08266486 96.15910526 25.10740663 94.23828125 25.09765625 C93.12001953 25.09443359 92.00175781 25.09121094 90.84960938 25.08789062 C89.68236328 25.07951172 88.51511719 25.07113281 87.3125 25.0625 C86.13365234 25.05798828 84.95480469 25.05347656 83.74023438 25.04882812 C80.82677211 25.03703273 77.91341137 25.0205727 75 25 C76.33333333 21.66666667 77.66666667 18.33333333 79 15 C77.73599917 14.92883228 77.73599917 14.92883228 75.75 16.0625 Z M25 17 C25 17.33 25 17.66 25 18 C31.27 18 37.54 18 44 18 C44 17.67 44 17.34 44 17 C37.73 17 31.46 17 25 17 Z M46 17 C46.33 17.66 46.66 18.32 47 19 C57.395 18.505 57.395 18.505 68 18 C68 17.67 68 17.34 68 17 C60.74 17 53.48 17 46 17 Z M80 17 C80 17.33 80 17.66 80 18 C85.61 18 91.22 18 97 18 C97 17.67 97 17.34 97 17 C91.39 17 85.78 17 80 17 Z M98 17 C99 19 99 19 99 19 Z M-15 18 C-15.33 18.99 -15.66 19.98 -16 21 C-15.01 21.495 -15.01 21.495 -14 22 C-13.01 23.485 -13.01 23.485 -12 25 C-12 22.69 -12 20.38 -12 18 C-12.99 18 -13.98 18 -15 18 Z M-1 18 C0 20 0 20 0 20 Z M16 18 C16.66 19.32 17.32 20.64 18 22 C19.94074861 21.72382467 19.94074861 21.72382467 22 21 C22.66 20.01 23.32 19.02 24 18 C19.89776415 16.98459888 19.89776415 16.98459888 16 18 Z M104 18 C104 18.33 104 18.66 104 19 C110.27 19 116.54 19 123 19 C123 18.67 123 18.34 123 18 C116.73 18 110.46 18 104 18 Z M-11 20 C-10 22 -10 22 -10 22 Z M1 21 C-0.47598935 28.21087461 -0.47598935 28.21087461 1.9375 34.6875 C2.9584375 35.3371875 2.9584375 35.3371875 4 36 C4.66 35.01 5.32 34.02 6 33 C5.79375 32.401875 5.5875 31.80375 5.375 31.1875 C5 29 5 29 6.9375 25.875 C7.618125 24.92625 8.29875 23.9775 9 23 C9 22.34 9 21.68 9 21 C6.36 21 3.72 21 1 21 Z M43 21 C42.67 21.99 42.34 22.98 42 24 C42.33 24.66 42.66 25.32 43 26 C42.01 26.495 42.01 26.495 41 27 C44.56045177 28.18681726 47.43808337 28.09689832 51.1875 28.0625 C52.45980469 28.05347656 53.73210937 28.04445313 55.04296875 28.03515625 C56.01878906 28.02355469 56.99460937 28.01195312 58 28 C57.814375 27.38125 57.62875 26.7625 57.4375 26.125 C57 24 57 24 58 22 C53.05 21.67 48.1 21.34 43 21 Z M81 23 C81 23.66 81 24.32 81 25 C86.61 25 92.22 25 98 25 C98 24.34 98 23.68 98 23 C92.39 23 86.78 23 81 23 Z M103 23 C103 23.33 103 23.66 103 24 C105.97 24 108.94 24 112 24 C112 23.67 112 23.34 112 23 C109.03 23 106.06 23 103 23 Z M128 23 C126.76493786 24.43534249 125.53507781 25.8758123 124.34375 27.34765625 C123.16030782 28.80287731 121.92738675 30.21756099 120.6875 31.625 C118.61386191 34.05787602 118.61386191 34.05787602 119 38 C124.71337373 38.59236584 124.71337373 38.59236584 129.5 36 C129.995 35.34 130.49 34.68 131 34 C130.34 33.01 129.68 32.02 129 31 C128.74239721 28.30547479 128.91099947 25.71451625 129 23 C128.67 23 128.34 23 128 23 Z M-20 25 C-20 25.99 -20 26.98 -20 28 C-19.34 28 -18.68 28 -18 28 C-18 27.01 -18 26.02 -18 25 C-18.66 25 -19.32 25 -20 25 Z M-12 25 C-11.67 26.32 -11.34 27.64 -11 29 C-10.34 28.67 -9.68 28.34 -9 28 C-9.99 27.01 -10.98 26.02 -12 25 Z M-9 25 C-8.34 26.32 -7.68 27.64 -7 29 C-7.33 27.68 -7.66 26.36 -8 25 C-8.33 25 -8.66 25 -9 25 Z M113 25 C113.27617533 26.94074861 113.27617533 26.94074861 114 29 C115.485 29.99 115.485 29.99 117 31 C117 30.01 117 29.02 117 28 C115.05990478 26.29467677 115.05990478 26.29467677 113 25 Z M59 27 C59.99 27.99 60.98 28.98 62 30 C62.66 29.01 63.32 28.02 64 27 C62.35 27 60.7 27 59 27 Z M103 27 C103 27.33 103 27.66 103 28 C105.31 28 107.62 28 110 28 C110 27.67 110 27.34 110 27 C107.69 27 105.38 27 103 27 Z M119 27 C119 27.99 119 28.98 119 30 C119.66 29.01 120.32 28.02 121 27 C120.34 27 119.68 27 119 27 Z M-22 28 C-21 30 -21 30 -21 30 Z M142 28 C142.33 28.66 142.66 29.32 143 30 C143.33 29.34 143.66 28.68 144 28 C143.34 28 142.68 28 142 28 Z M-7 29 C-6 32 -6 32 -6 32 Z M-23 31 C-24.33059914 34.99179743 -23.81502739 37.26317891 -22 41 C-24.97 41 -27.94 41 -31 41 C-31 41.33 -31 41.66 -31 42 C-28.36 42 -25.72 42 -23 42 C-23 42.66 -23 43.32 -23 44 C-20.33821779 45.3308911 -18.31260604 45.11268993 -15.3359375 45.09765625 C-13.65371094 45.09282227 -13.65371094 45.09282227 -11.9375 45.08789062 C-10.1740625 45.07532227 -10.1740625 45.07532227 -8.375 45.0625 C-7.19164062 45.05798828 -6.00828125 45.05347656 -4.7890625 45.04882812 C-1.85932493 45.03701467 1.07031272 45.02054258 4 45 C4 44.67 4 44.34 4 44 C-1.28 43.67 -6.56 43.34 -12 43 C-11.67 42.01 -11.34 41.02 -11 40 C-11.99 39.67 -12.98 39.34 -14 39 C-14.33 36.36 -14.66 33.72 -15 31 C-19.1334557 29.92965507 -19.1334557 29.92965507 -23 31 Z M98 31 C99 33 99 33 99 33 Z M140.375 33.5 C139.74335938 33.9640625 139.11171875 34.428125 138.4609375 34.90625 C137.97882813 35.2671875 137.49671875 35.628125 137 36 C137.33 37.32 137.66 38.64 138 40 C141.3 40.33 144.6 40.66 148 41 C147.855625 40.278125 147.71125 39.55625 147.5625 38.8125 C147.04166667 36.20833333 146.52083333 33.60416667 146 31 C143.37548383 31 142.4644652 31.952248 140.375 33.5 Z M-6 32 C-5 34 -5 34 -5 34 Z M42 32 C42 32.66 42 33.32 42 34 C42.66 33.67 43.32 33.34 44 33 C43.34 32.67 42.68 32.34 42 32 Z M118 32 C119 34 119 34 119 34 Z M-9 33 C-8 35 -8 35 -8 35 Z M49 33 C48.67 34.65 48.34 36.3 48 38 C50.97 38 53.94 38 57 38 C57.33 36.68 57.66 35.36 58 34 C57.01732141 32.79438816 57.01732141 32.79438816 55.15234375 32.90234375 C53.1015625 32.93489583 51.05078125 32.96744792 49 33 Z M62 33 C63 35 63 35 63 35 Z M105 33 C105 33.66 105 34.32 105 35 C107.64 35 110.28 35 113 35 C111.10244856 32.65026182 111.10244856 32.65026182 107.875 32.875 C106.92625 32.91625 105.9775 32.9575 105 33 Z M-8 35 C-7 37 -7 37 -7 37 Z M32.375 34.5 C31.66859375 34.54769531 30.9621875 34.59539063 30.234375 34.64453125 C28.48954299 34.7624253 26.74476614 34.88113515 25 35 C25 35.99 25 36.98 25 38 C30.28 38 35.56 38 41 38 C41.33 36.68 41.66 35.36 42 34 C38.78431744 34 35.58196135 34.28107459 32.375 34.5 Z M70 35 C71 37 71 37 71 37 Z M89.0625 34.1875 C87.96905273 34.21553711 87.96905273 34.21553711 86.85351562 34.24414062 C84.44425473 34.3276518 84.44425473 34.3276518 81 35 C80.01 36.32 79.02 37.64 78 39 C84.27 38.67 90.54 38.34 97 38 C97.33 38.99 97.66 39.98 98 41 C98.33 39.02 98.66 37.04 99 35 C95.82979127 33.41489563 92.51768022 34.00820745 89.0625 34.1875 Z M104 36 C103.67 37.32 103.34 38.64 103 40 C104.81193006 42.24324836 104.81193006 42.24324836 107.3828125 42.1953125 C108.28773438 42.17210937 109.19265625 42.14890625 110.125 42.125 C111.03507813 42.10695313 111.94515625 42.08890625 112.8828125 42.0703125 C113.58148438 42.04710937 114.28015625 42.02390625 115 42 C115.33 41.34 115.66 40.68 116 40 C115.34 38.68 114.68 37.36 114 36 C110.7 36 107.4 36 104 36 Z M-5 37 C-4 39 -4 39 -4 39 Z M8 37 C9 39 9 39 9 39 Z M58 37 C59 39 59 39 59 39 Z M149 38 C148.67 39.32 148.34 40.64 148 42 C149.32 42.33 150.64 42.66 152 43 C151.34 41.35 150.68 39.7 150 38 C149.67 38 149.34 38 149 38 Z M46 39 C46.33 39.99 46.66 40.98 47 42 C47.33 41.01 47.66 40.02 48 39 C47.34 39 46.68 39 46 39 Z M-6 40 C-5 42 -5 42 -5 42 Z M48 40 C47.67 41.32 47.34 42.64 47 44 C48.62418745 44.08090971 50.24951745 44.13914995 51.875 44.1875 C52.77992188 44.22230469 53.68484375 44.25710937 54.6171875 44.29296875 C55.40351563 44.19628906 56.18984375 44.09960938 57 44 C57.66 43.01 58.32 42.02 59 41 C56.59454362 39.79727181 55.05003047 39.89928528 52.375 39.9375 C51.55773437 39.94652344 50.74046875 39.95554688 49.8984375 39.96484375 C49.27195312 39.97644531 48.64546875 39.98804688 48 40 Z M102 40 C103 42 103 42 103 42 Z M121 40 C122 42 122 42 122 42 Z M131 40 C131 40.66 131 41.32 131 42 C132.32 41.67 133.64 41.34 135 41 C133.68 40.67 132.36 40.34 131 40 Z M59 42 C59.33 42.99 59.66 43.98 60 45 C61.65 45 63.3 45 65 45 C63.68 44.67 62.36 44.34 61 44 C61 43.34 61 42.68 61 42 C60.34 42 59.68 42 59 42 Z M96 42 C97 44 97 44 97 44 Z M124 42 C125 45 125 45 125 45 Z M135 42 C135 42.33 135 42.66 135 43 C138.3 43 141.6 43 145 43 C145 42.67 145 42.34 145 42 C141.7 42 138.4 42 135 42 Z M40 43 C39.67 43.66 39.34 44.32 39 45 C39.99 44.67 40.98 44.34 42 44 C41.34 43.67 40.68 43.34 40 43 Z M94 43 C94 43.66 94 44.32 94 45 C94.66 44.67 95.32 44.34 96 44 C95.34 43.67 94.68 43.34 94 43 Z M16 44 C16 44.33 16 44.66 16 45 C23.26 45 30.52 45 38 45 C38 44.67 38 44.34 38 44 C30.74 44 23.48 44 16 44 Z M73 44 C73 44.33 73 44.66 73 45 C79.6 45 86.2 45 93 45 C93 44.67 93 44.34 93 44 C86.4 44 79.8 44 73 44 Z M116 43 C112.37 43.33 108.74 43.66 105 44 C105 44.33 105 44.66 105 45 C108.96 45 112.92 45 117 45 C116.67 44.34 116.34 43.68 116 43 Z " fill="#F9F8FA" transform="translate(159,25)"/>
<path d="M0 0 C1.62032062 0.33592013 3.24626311 0.64510065 4.875 0.9375 C12.81492466 2.93576752 18.1736355 8.54415153 24 14 C24 13.34 24 12.68 24 12 C24 11.01 24 10.02 24 9 C24.99 9.99 24.99 9.99 26 11 C26.33 10.67 26.66 10.34 27 10 C29.33297433 9.95907063 31.66705225 9.95758277 34 10 C34.02697137 12.60423592 34.04682489 15.20819244 34.0625 17.8125 C34.07087891 18.55048828 34.07925781 19.28847656 34.08789062 20.04882812 C34.10259828 23.29922068 34.03531702 25.89404895 33 29 C33.495 29.99 33.495 29.99 34 31 C34.24730024 35.09853388 34.19004171 39.20734964 34.1875 43.3125 C34.18741943 44.49263672 34.18733887 45.67277344 34.18725586 46.88867188 C34.06276309 65.87447381 34.06276309 65.87447381 31 72 C30.40445313 72.26554687 29.80890625 72.53109375 29.1953125 72.8046875 C26.27359013 74.39551854 24.86133479 76.47403608 22.875 79.125 C21.62875581 80.78509132 20.34659989 82.42022264 19 84 C18.34 84 17.68 84 17 84 C17.33 84.99 17.66 85.98 18 87 C13.13984931 89.61700422 8.25507675 91.39001091 3 93 C1.1746875 93.5878125 1.1746875 93.5878125 -0.6875 94.1875 C-11.45231314 96.70783324 -24.94685384 95.90823683 -34.70703125 90.5 C-36.23129517 89.47561585 -37.73209489 88.41452425 -39.1953125 87.3046875 C-41.07501453 85.8085851 -41.07501453 85.8085851 -44 85 C-44.99 85.99 -44.99 85.99 -46 87 C-45.34 88.32 -44.68 89.64 -44 91 C-45.485 90.505 -45.485 90.505 -47 90 C-49.33299825 89.96045766 -51.66708189 89.95598268 -54 90 C-54.1954625 87.75067773 -54.38108226 85.50049858 -54.5625 83.25 C-54.66691406 81.99703125 -54.77132812 80.7440625 -54.87890625 79.453125 C-54.97876723 76.60547636 -54.90584295 74.65713933 -54 72 C-54.66 72 -55.32 72 -56 72 C-56.33 69.36 -56.66 66.72 -57 64 C-57.66 64 -58.32 64 -59 64 C-60.96418805 59.0464899 -61.3486151 54.80708908 -61.3125 49.5625 C-61.31056641 48.39291748 -61.31056641 48.39291748 -61.30859375 47.19970703 C-61.18459846 39.56004729 -59.83485934 32.40496805 -58 25 C-57.34 25.33 -56.68 25.66 -56 26 C-52.43720818 20.64530565 -52.43720818 20.64530565 -49.9375 14.75 C-48.82630635 11.49049862 -47.70988561 10.10768881 -45 8 C-42 6.875 -42 6.875 -39 6 C-36.78721656 5.02377201 -35.12591492 4.10702768 -33.28125 2.5390625 C-25.60345665 -2.64081863 -7.88509232 -5.25672821 0 0 Z M-9 -1 C-9 -0.67 -9 -0.34 -9 0 C-7.02 0 -5.04 0 -3 0 C-3 -0.33 -3 -0.66 -3 -1 C-4.98 -1 -6.96 -1 -9 -1 Z M-19 11 C-23.83726186 12.46402711 -23.83726186 12.46402711 -27 16 C-23.04179141 15.43454163 -20.3340947 14.19097652 -17 12 C-17.66 11.67 -18.32 11.34 -19 11 Z M-24 16 C-23.67 16.99 -23.34 17.98 -23 19 C-22.34 19 -21.68 19 -21 19 C-21 19.66 -21 20.32 -21 21 C-22.32 20.34 -23.64 19.68 -25 19 C-24.15677323 23.3847792 -23.75796705 25.45168341 -20.0625 28.125 C-19.051875 28.74375 -18.04125 29.3625 -17 30 C-16.505 30.886875 -16.01 31.77375 -15.5 32.6875 C-14.16356431 35.33825176 -14.16356431 35.33825176 -10.9375 35.6875 C-9.968125 35.790625 -8.99875 35.89375 -8 36 C-7.34 36.66 -6.68 37.32 -6 38 C-6.33 38.66 -6.66 39.32 -7 40 C-6.67 40.66 -6.34 41.32 -6 42 C-5.01 42 -4.02 42 -3 42 C-2.34 43.32 -1.68 44.64 -1 46 C-0.34 46 0.32 46 1 46 C1.33 46.66 1.66 47.32 2 48 C2 47.34 2 46.68 2 46 C3.485 45.505 3.485 45.505 5 45 C4.67 44.34 4.34 43.68 4 43 C5.31142374 39.47272236 7.61470531 37.00322643 10.125 34.25 C10.84945312 33.45078125 11.57390625 32.6515625 12.3203125 31.828125 C13.15175781 30.92320313 13.15175781 30.92320313 14 30 C13.505 28.515 13.505 28.515 13 27 C12.01 28.32 11.02 29.64 10 31 C9.75 23.375 9.75 23.375 12 20 C9.45015828 16.88352679 6.78318693 16.15811845 3 15 C1.66666667 14.33333333 0.33333333 13.66666667 -1 13 C-9.38067768 10.47481764 -16.61790826 11.54288801 -24 16 Z M25 15 C25.99 16.485 25.99 16.485 27 18 C27 17.01 27 16.02 27 15 C26.34 15 25.68 15 25 15 Z M-29 16 C-29 16.66 -29 17.32 -29 18 C-28.34 18 -27.68 18 -27 18 C-27 17.34 -27 16.68 -27 16 C-27.66 16 -28.32 16 -29 16 Z M11 22 C11 22.66 11 23.32 11 24 C11.66 23.67 12.32 23.34 13 23 C12.34 22.67 11.68 22.34 11 22 Z M-36 24 C-36 24.99 -36 25.98 -36 27 C-35.34 26.34 -34.68 25.68 -34 25 C-34.66 24.67 -35.32 24.34 -36 24 Z M-43 25 C-43.99 26.485 -43.99 26.485 -45 28 C-44.01 28.495 -44.01 28.495 -43 29 C-42.34 27.68 -41.68 26.36 -41 25 C-41.66 25 -42.32 25 -43 25 Z M-40 26 C-39 28 -39 28 -39 28 Z M-47 29 C-49.07965362 35.75887425 -49.21133202 41.95559921 -49 49 C-48.01 49.33 -47.02 49.66 -46 50 C-45.67 43.4 -45.34 36.8 -45 30 C-45.66 29.67 -46.32 29.34 -47 29 Z M-37 30 C-36 33 -36 33 -36 33 Z M-39 31 C-38 33 -38 33 -38 33 Z M-9 37 C-9 37.99 -9 38.98 -9 40 C-8.34 39.34 -7.68 38.68 -7 38 C-7.66 37.67 -8.32 37.34 -9 37 Z M-51 41 C-51 43.97 -51 46.94 -51 50 C-50.67 50 -50.34 50 -50 50 C-50 47.03 -50 44.06 -50 41 C-50.33 41 -50.66 41 -51 41 Z M21 44 C21.66 45.32 22.32 46.64 23 48 C23 46.68 23 45.36 23 44 C22.34 44 21.68 44 21 44 Z M22 49 C20.89771304 53.40914783 20.92345464 57.48382401 21 62 C23.75736043 57.86395936 24 53.91089275 24 49 C23.34 49 22.68 49 22 49 Z M13 50 C13 53 13 53 13 53 Z M16 51 C14.96704564 52.09283577 13.94892165 53.19970579 12.9375 54.3125 C12.36902344 54.92738281 11.80054687 55.54226562 11.21484375 56.17578125 C10.81394531 56.77777344 10.41304688 57.37976562 10 58 C10.33 58.99 10.66 59.98 11 61 C11.33 60.34 11.66 59.68 12 59 C14.3140622 58.26924352 16.64828869 57.59861742 19 57 C18.65555119 54.52733235 18.65555119 54.52733235 18 52 C17.34 51.67 16.68 51.34 16 51 Z M-29 52 C-29 52.66 -29 53.32 -29 54 C-30.65 54.33 -32.3 54.66 -34 55 C-33.67 55.66 -33.34 56.32 -33 57 C-31.68 57 -30.36 57 -29 57 C-29.04125 57.9075 -29.0825 58.815 -29.125 59.75 C-29.00468444 62.8782046 -28.6085292 64.38614006 -27 67 C-27.99 67.33 -28.98 67.66 -30 68 C-28.63676257 70.0399719 -28.63676257 70.0399719 -27 72 C-26.34 72 -25.68 72 -25 72 C-24.34 70.35 -23.68 68.7 -23 67 C-23.99 67 -24.98 67 -26 67 C-26 66.34 -26 65.68 -26 65 C-25.01 64.67 -24.02 64.34 -23 64 C-22.01 64.99 -21.02 65.98 -20 67 C-20.99 67.495 -20.99 67.495 -22 68 C-21.67 69.98 -21.34 71.96 -21 74 C-19.35 73.67 -17.7 73.34 -16 73 C-16 72.34 -16 71.68 -16 71 C-13.36 72.32 -10.72 73.64 -8 75 C-9.77922539 71.44154922 -11.28652578 68.86852989 -14 66 C-15.66194453 65.64386903 -17.328451 65.30791692 -19 65 C-20.25 63.0625 -20.25 63.0625 -21 61 C-21.33 60.34 -21.66 59.68 -22 59 C-22.66 59 -23.32 59 -24 59 C-24.33 57.68 -24.66 56.36 -25 55 C-25.66 55 -26.32 55 -27 55 C-27.33 54.01 -27.66 53.02 -28 52 C-28.33 52 -28.66 52 -29 52 Z M-38 57 C-38.33 57.66 -38.66 58.32 -39 59 C-38.34 59 -37.68 59 -37 59 C-37.33 58.34 -37.66 57.68 -38 57 Z M6 58 C6.66 58.66 7.32 59.32 8 60 C8 59.34 8 58.68 8 58 C7.34 58 6.68 58 6 58 Z M-32 58 C-33.98 58.99 -35.96 59.98 -38 61 C-38 62.98 -38 64.96 -38 67 C-37.34 66.67 -36.68 66.34 -36 66 C-36 65.01 -36 64.02 -36 63 C-33.5 61.3125 -33.5 61.3125 -31 60 C-31.33 59.34 -31.66 58.68 -32 58 Z M-20 59 C-19.34 60.32 -18.68 61.64 -18 63 C-17.01 63 -16.02 63 -15 63 C-16.65 61.68 -18.3 60.36 -20 59 Z M-32 61 C-32.33 62.65 -32.66 64.3 -33 66 C-32.34 65.67 -31.68 65.34 -31 65 C-31.33 63.68 -31.66 62.36 -32 61 Z M19 61 C18.67 62.65 18.34 64.3 18 66 C18.99 65.34 19.98 64.68 21 64 C20.67 63.01 20.34 62.02 20 61 C19.67 61 19.34 61 19 61 Z M-43 63 C-43.33 63.66 -43.66 64.32 -44 65 C-43.34 65.66 -42.68 66.32 -42 67 C-41.67 66.01 -41.34 65.02 -41 64 C-41.66 63.67 -42.32 63.34 -43 63 Z M-35 63 C-34 66 -34 66 -34 66 Z M4 67 C4.99 67.99 5.98 68.98 7 70 C7.66 69.01 8.32 68.02 9 67 C7.35 67 5.7 67 4 67 Z M-40 71 C-39 73 -39 73 -39 73 Z M-5 73 C-5 73.99 -5 74.98 -5 76 C-4.01 76 -3.02 76 -2 76 C-2.99 75.01 -3.98 74.02 -5 73 Z M-38 74 C-38 74.66 -38 75.32 -38 76 C-37.01 75.67 -36.02 75.34 -35 75 C-35.99 74.67 -36.98 74.34 -38 74 Z M-25 74 C-21 75 -21 75 -21 75 Z M-53 75 C-51.88145414 78.72614153 -51.88145414 78.72614153 -49 81 C-49.33 79.35 -49.66 77.7 -50 76 C-50.99 75.67 -51.98 75.34 -53 75 Z M4 78 C4.66 78.66 5.32 79.32 6 80 C6 79.34 6 78.68 6 78 C5.34 78 4.68 78 4 78 Z M-54 79 C-53.67 79.66 -53.34 80.32 -53 81 C-52.67 80.34 -52.34 79.68 -52 79 C-52.66 79 -53.32 79 -54 79 Z M-48 80 C-48 80.66 -48 81.32 -48 82 C-47.34 81.67 -46.68 81.34 -46 81 C-46.66 80.67 -47.32 80.34 -48 80 Z M-46 82 C-45 84 -45 84 -45 84 Z M-24 83 C-24 83.33 -24 83.66 -24 84 C-22.35 84 -20.7 84 -19 84 C-19 83.67 -19 83.34 -19 83 C-20.65 83 -22.3 83 -24 83 Z M-15 84 C-11 85 -11 85 -11 85 Z " fill="#8B8B8B" transform="translate(78,6)"/>
<path d="M0 0 C8.01332669 5.71220248 13.90686187 13.92278194 16.4375 23.4609375 C16.85823288 26.76478701 16.91549622 30.00828703 16.875 33.3359375 C16.86597656 34.22071777 16.85695313 35.10549805 16.84765625 36.01708984 C16.54455933 47.42742588 12.53863086 55.35980664 4.4375 63.4609375 C-5.27296453 71.28816042 -16.13733018 74.72809363 -28.5625 73.4609375 C-40.10901407 71.54184929 -49.21906516 65.51997829 -56.5625 56.4609375 C-62.21852747 47.31654792 -64.6570607 38.19805673 -63.5625 27.4609375 C-62.55629847 23.32222179 -61.36130744 19.327717 -59.5625 15.4609375 C-58.9025 15.1309375 -58.2425 14.8009375 -57.5625 14.4609375 C-57.7790625 15.26015625 -57.995625 16.059375 -58.21875 16.8828125 C-60.16750659 24.56957459 -60.94769261 31.54308938 -60.5625 39.4609375 C-59.9025 38.4709375 -59.2425 37.4809375 -58.5625 36.4609375 C-57.5725 36.4609375 -56.5825 36.4609375 -55.5625 36.4609375 C-55.2325 35.1409375 -54.9025 33.8209375 -54.5625 32.4609375 C-53.9025 33.1209375 -53.2425 33.7809375 -52.5625 34.4609375 C-51.9025 33.8009375 -51.2425 33.1409375 -50.5625 32.4609375 C-51.2225 31.1409375 -51.8825 29.8209375 -52.5625 28.4609375 C-51.675625 28.0484375 -50.78875 27.6359375 -49.875 27.2109375 C-46.52708253 25.59812127 -46.52708253 25.59812127 -43.9375 23.2109375 C-41.5625 21.4609375 -41.5625 21.4609375 -39.5625 21.3984375 C-36.69837937 22.92000158 -34.8279072 25.14338227 -32.5625 27.4609375 C-31.64404297 28.38986816 -30.72558594 29.31879883 -29.77929688 30.27587891 C-29.29529419 30.76633698 -28.8112915 31.25679504 -28.31262207 31.76211548 C-26.13843289 33.96329788 -23.95870232 36.15896077 -21.77880859 38.35449219 C-20.63281119 39.51059653 -19.48860833 40.66848244 -18.34619141 41.828125 C-16.68345601 43.51519311 -15.01427777 45.19565189 -13.34375 46.875 C-12.58572083 47.64851303 -12.58572083 47.64851303 -11.81237793 48.43765259 C-8.94867667 51.30224763 -6.22450285 53.69655878 -2.5625 55.4609375 C-1.2425 55.4609375 0.0775 55.4609375 1.4375 55.4609375 C1.4375 53.1509375 1.4375 50.8409375 1.4375 48.4609375 C0.4475 48.4609375 -0.5425 48.4609375 -1.5625 48.4609375 C-1.5625 47.4709375 -1.5625 46.4809375 -1.5625 45.4609375 C2.0675 44.8009375 5.6975 44.1409375 9.4375 43.4609375 C8.7775 41.1509375 8.1175 38.8409375 7.4375 36.4609375 C8.8125 34.9609375 8.8125 34.9609375 10.4375 33.4609375 C11.0975 33.4609375 11.7575 33.4609375 12.4375 33.4609375 C12.416875 32.5534375 12.39625 31.6459375 12.375 30.7109375 C12.4375 27.4609375 12.4375 27.4609375 13.0625 25.4609375 C13.62443465 22.46395272 12.51432713 20.24801947 11.4375 17.4609375 C6.18385731 21.66385165 1.71243349 26.30200852 -2.74145508 31.32128906 C-4.91619775 33.75414415 -6.82825988 35.63811075 -9.5625 37.4609375 C-12.9601699 34.80909758 -15.91795492 32.15597157 -18.70703125 28.8671875 C-22.86604076 24.06312733 -27.23600319 19.49363906 -31.6875 14.9609375 C-32.47253906 14.13851562 -33.25757812 13.31609375 -34.06640625 12.46875 C-34.83082031 11.69273438 -35.59523438 10.91671875 -36.3828125 10.1171875 C-37.06617676 9.41400391 -37.74954102 8.71082031 -38.45361328 7.98632812 C-41.0158289 6.13303764 -42.46895568 6.14517332 -45.5625 6.4609375 C-45.8925 7.1209375 -46.2225 7.7809375 -46.5625 8.4609375 C-47.18125 8.1103125 -47.8 7.7596875 -48.4375 7.3984375 C-49.13875 7.0890625 -49.84 6.7796875 -50.5625 6.4609375 C-51.5525 6.9559375 -51.5525 6.9559375 -52.5625 7.4609375 C-52.2325 6.4709375 -51.9025 5.4809375 -51.5625 4.4609375 C-49.05859375 3.51171875 -49.05859375 3.51171875 -46 2.7734375 C-44.98808594 2.52207031 -43.97617187 2.27070313 -42.93359375 2.01171875 C-42.15113281 1.82996094 -41.36867188 1.64820313 -40.5625 1.4609375 C-39.5725 2.9459375 -39.5725 2.9459375 -38.5625 4.4609375 C-37.9025 4.4609375 -37.2425 4.4609375 -36.5625 4.4609375 C-36.5625 3.8009375 -36.5625 3.1409375 -36.5625 2.4609375 C-33.5625 2.4609375 -33.5625 2.4609375 -31.875 3.8359375 C-30.5625 5.4609375 -30.5625 5.4609375 -30.5625 7.4609375 C-31.5525 7.4609375 -32.5425 7.4609375 -33.5625 7.4609375 C-31.74179978 11.64854801 -30.73353919 13.63610785 -26.5625 15.4609375 C-25.5625 16.79427083 -24.5625 18.12760417 -23.5625 19.4609375 C-21.64583333 20.62760417 -21.64583333 20.62760417 -19.5625 21.4609375 C-18.22916667 22.12760417 -16.89583333 22.79427083 -15.5625 23.4609375 C-15.5625 25.12760417 -15.5625 26.79427083 -15.5625 28.4609375 C-14.5725 28.4609375 -13.5825 28.4609375 -12.5625 28.4609375 C-10.375 30.4609375 -10.375 30.4609375 -8.5625 32.4609375 C-7.36796632 31.4260212 -7.36796632 31.4260212 -6.9375 29.3359375 C-5.24923505 25.80592896 -2.97752205 23.73420101 -0.12109375 21.109375 C1.68002961 19.43666699 1.68002961 19.43666699 2.4375 16.4609375 C1.4475 17.1209375 0.4575 17.7809375 -0.5625 18.4609375 C-0.61645478 16.83629908 -0.65527195 15.21115209 -0.6875 13.5859375 C-0.71070313 12.68101563 -0.73390625 11.77609375 -0.7578125 10.84375 C-0.5625 8.4609375 -0.5625 8.4609375 1.4375 6.4609375 C0.4475 5.8009375 -0.5425 5.1409375 -1.5625 4.4609375 C-2.0575 2.9759375 -2.0575 2.9759375 -2.5625 1.4609375 C-4.24837074 0.25785513 -4.24837074 0.25785513 -6.3125 -0.6640625 C-6.98796875 -0.99664063 -7.6634375 -1.32921875 -8.359375 -1.671875 C-18.15078153 -5.52593927 -31.00984512 -4.65149887 -40.5625 -0.5390625 C-42.24138441 0.44028674 -43.91428756 1.43080473 -45.5625 2.4609375 C-46.2225 2.1309375 -46.8825 1.8009375 -47.5625 1.4609375 C-46.04832906 0.49211183 -44.52575846 -0.46359002 -43 -1.4140625 C-42.15308594 -1.94773437 -41.30617188 -2.48140625 -40.43359375 -3.03125 C-27.26022335 -9.94950983 -12.31272846 -7.39514484 0 0 Z M1.4375 8.4609375 C1.4375 9.1209375 1.4375 9.7809375 1.4375 10.4609375 C2.0975 10.1309375 2.7575 9.8009375 3.4375 9.4609375 C2.7775 9.1309375 2.1175 8.8009375 1.4375 8.4609375 Z M-18.5625 23.4609375 C-18.5625 24.4509375 -18.5625 25.4409375 -18.5625 26.4609375 C-17.9025 25.8009375 -17.2425 25.1409375 -16.5625 24.4609375 C-17.2225 24.1309375 -17.8825 23.8009375 -18.5625 23.4609375 Z M12.4375 35.4609375 C11.33521304 39.87008533 11.36095464 43.94476151 11.4375 48.4609375 C14.19486043 44.32489686 14.4375 40.37183025 14.4375 35.4609375 C13.7775 35.4609375 13.1175 35.4609375 12.4375 35.4609375 Z M-38.5625 38.4609375 C-38.5625 39.1209375 -38.5625 39.7809375 -38.5625 40.4609375 C-40.2125 40.7909375 -41.8625 41.1209375 -43.5625 41.4609375 C-43.2325 42.1209375 -42.9025 42.7809375 -42.5625 43.4609375 C-41.2425 43.4609375 -39.9225 43.4609375 -38.5625 43.4609375 C-38.60375 44.3684375 -38.645 45.2759375 -38.6875 46.2109375 C-38.56718444 49.3391421 -38.1710292 50.84707756 -36.5625 53.4609375 C-37.5525 53.7909375 -38.5425 54.1209375 -39.5625 54.4609375 C-38.19926257 56.5009094 -38.19926257 56.5009094 -36.5625 58.4609375 C-35.9025 58.4609375 -35.2425 58.4609375 -34.5625 58.4609375 C-33.9025 56.8109375 -33.2425 55.1609375 -32.5625 53.4609375 C-33.5525 53.4609375 -34.5425 53.4609375 -35.5625 53.4609375 C-35.5625 52.8009375 -35.5625 52.1409375 -35.5625 51.4609375 C-34.5725 51.1309375 -33.5825 50.8009375 -32.5625 50.4609375 C-31.5725 51.4509375 -30.5825 52.4409375 -29.5625 53.4609375 C-30.5525 53.9559375 -30.5525 53.9559375 -31.5625 54.4609375 C-31.2325 56.4409375 -30.9025 58.4209375 -30.5625 60.4609375 C-28.9125 60.1309375 -27.2625 59.8009375 -25.5625 59.4609375 C-25.5625 58.8009375 -25.5625 58.1409375 -25.5625 57.4609375 C-22.9225 58.7809375 -20.2825 60.1009375 -17.5625 61.4609375 C-19.34172539 57.90248672 -20.84902578 55.32946739 -23.5625 52.4609375 C-25.22444453 52.10480653 -26.890951 51.76885442 -28.5625 51.4609375 C-29.8125 49.5234375 -29.8125 49.5234375 -30.5625 47.4609375 C-30.8925 46.8009375 -31.2225 46.1409375 -31.5625 45.4609375 C-32.2225 45.4609375 -32.8825 45.4609375 -33.5625 45.4609375 C-33.8925 44.1409375 -34.2225 42.8209375 -34.5625 41.4609375 C-35.2225 41.4609375 -35.8825 41.4609375 -36.5625 41.4609375 C-36.8925 40.4709375 -37.2225 39.4809375 -37.5625 38.4609375 C-37.8925 38.4609375 -38.2225 38.4609375 -38.5625 38.4609375 Z M-47.5625 43.4609375 C-47.8925 44.1209375 -48.2225 44.7809375 -48.5625 45.4609375 C-47.9025 45.4609375 -47.2425 45.4609375 -46.5625 45.4609375 C-46.8925 44.8009375 -47.2225 44.1409375 -47.5625 43.4609375 Z M-41.5625 44.4609375 C-43.5425 45.4509375 -45.5225 46.4409375 -47.5625 47.4609375 C-47.5625 49.4409375 -47.5625 51.4209375 -47.5625 53.4609375 C-46.9025 53.1309375 -46.2425 52.8009375 -45.5625 52.4609375 C-45.5625 51.4709375 -45.5625 50.4809375 -45.5625 49.4609375 C-43.0625 47.7734375 -43.0625 47.7734375 -40.5625 46.4609375 C-40.8925 45.8009375 -41.2225 45.1409375 -41.5625 44.4609375 Z M-29.5625 45.4609375 C-28.9025 46.7809375 -28.2425 48.1009375 -27.5625 49.4609375 C-26.5725 49.4609375 -25.5825 49.4609375 -24.5625 49.4609375 C-26.2125 48.1409375 -27.8625 46.8209375 -29.5625 45.4609375 Z M-41.5625 47.4609375 C-41.8925 49.1109375 -42.2225 50.7609375 -42.5625 52.4609375 C-41.9025 52.1309375 -41.2425 51.8009375 -40.5625 51.4609375 C-40.8925 50.1409375 -41.2225 48.8209375 -41.5625 47.4609375 Z M9.4375 47.4609375 C9.1075 49.1109375 8.7775 50.7609375 8.4375 52.4609375 C9.4275 51.8009375 10.4175 51.1409375 11.4375 50.4609375 C11.1075 49.4709375 10.7775 48.4809375 10.4375 47.4609375 C10.1075 47.4609375 9.7775 47.4609375 9.4375 47.4609375 Z M-52.5625 49.4609375 C-52.8925 50.1209375 -53.2225 50.7809375 -53.5625 51.4609375 C-52.9025 52.1209375 -52.2425 52.7809375 -51.5625 53.4609375 C-51.2325 52.4709375 -50.9025 51.4809375 -50.5625 50.4609375 C-51.2225 50.1309375 -51.8825 49.8009375 -52.5625 49.4609375 Z M-44.5625 49.4609375 C-43.5625 52.4609375 -43.5625 52.4609375 -43.5625 52.4609375 Z M-49.5625 57.4609375 C-48.5625 59.4609375 -48.5625 59.4609375 -48.5625 59.4609375 Z M-14.5625 59.4609375 C-14.5625 60.4509375 -14.5625 61.4409375 -14.5625 62.4609375 C-13.5725 62.4609375 -12.5825 62.4609375 -11.5625 62.4609375 C-12.5525 61.4709375 -13.5425 60.4809375 -14.5625 59.4609375 Z M-47.5625 60.4609375 C-47.5625 61.1209375 -47.5625 61.7809375 -47.5625 62.4609375 C-46.5725 62.1309375 -45.5825 61.8009375 -44.5625 61.4609375 C-45.5525 61.1309375 -46.5425 60.8009375 -47.5625 60.4609375 Z M-34.5625 60.4609375 C-30.5625 61.4609375 -30.5625 61.4609375 -30.5625 61.4609375 Z M-5.5625 64.4609375 C-4.9025 65.1209375 -4.2425 65.7809375 -3.5625 66.4609375 C-3.5625 65.8009375 -3.5625 65.1409375 -3.5625 64.4609375 C-4.2225 64.4609375 -4.8825 64.4609375 -5.5625 64.4609375 Z M-33.5625 69.4609375 C-33.5625 69.7909375 -33.5625 70.1209375 -33.5625 70.4609375 C-31.9125 70.4609375 -30.2625 70.4609375 -28.5625 70.4609375 C-28.5625 70.1309375 -28.5625 69.8009375 -28.5625 69.4609375 C-30.2125 69.4609375 -31.8625 69.4609375 -33.5625 69.4609375 Z M-24.5625 70.4609375 C-20.5625 71.4609375 -20.5625 71.4609375 -20.5625 71.4609375 Z " fill="#0F0E0F" transform="translate(87.5625,19.5390625)"/>
<path d="M0 0 C6.27 0 12.54 0 19 0 C19 2.31 19 4.62 19 7 C60.58 7 102.16 7 145 7 C145 9.64 145 12.28 145 15 C144.071875 15.2475 143.14375 15.495 142.1875 15.75 C138.77824707 17.08696193 137.96587748 18.05118379 136 21 C135.34 21 134.68 21 134 21 C133.9175 21.556875 133.835 22.11375 133.75 22.6875 C132.77389987 25.69714206 131.04811186 27.62154752 129 30 C128.96132813 28.98679687 128.96132813 28.98679687 128.921875 27.953125 C128.86515625 27.06109375 128.8084375 26.1690625 128.75 25.25 C128.70359375 24.36828125 128.6571875 23.4865625 128.609375 22.578125 C127.78788012 19.10256975 126.9725642 18.01660941 124 16 C120.8197515 15.30274239 117.68502004 15.16725871 114.4375 15.0625 C113.57447266 15.00771484 112.71144531 14.95292969 111.82226562 14.89648438 C108.39912024 14.71606027 108.39912024 14.71606027 105 15 C103.35996798 16.46531199 103.35996798 16.46531199 102 18 C101.34 18 100.68 18 100 18 C99.01 16.515 99.01 16.515 98 15 C96.05713683 14.53674882 96.05713683 14.53674882 93.82421875 14.6015625 C92.99599609 14.59769531 92.16777344 14.59382813 91.31445312 14.58984375 C90.01411133 14.60724609 90.01411133 14.60724609 88.6875 14.625 C87.40456055 14.60759766 87.40456055 14.60759766 86.09570312 14.58984375 C80.99338109 14.6135571 78.3738049 15.27484101 74 18 C71.390625 17.6875 71.390625 17.6875 68 17 C64.24974512 16.88307857 60.50138517 16.95115384 56.75 17 C54.76567871 17.02544002 52.78129483 17.04649661 50.796875 17.0625 C49.48734863 17.07990234 49.48734863 17.07990234 48.15136719 17.09765625 C46 17 46 17 44 16 C44 15.34 44 14.68 44 14 C43.25943359 14.2475 43.25943359 14.2475 42.50390625 14.5 C38.98477012 15.20272921 35.50777059 15.0642713 31.9375 15 C26.39550447 14.84932975 26.39550447 14.84932975 21 16 C21 16.66 21 17.32 21 18 C19.35 18 17.7 18 16 18 C16 17.01 16 16.02 16 15 C16.66 15 17.32 15 18 15 C17.91253716 13.56138706 17.80434652 12.12402492 17.6875 10.6875 C17.62949219 9.88699219 17.57148438 9.08648437 17.51171875 8.26171875 C16.8871155 5.50106775 16.36351377 4.56394209 14 3 C11.09440812 2.67416398 11.09440812 2.67416398 7.9375 2.875 C2.16949153 3.08474576 2.16949153 3.08474576 0 2 C0 1.34 0 0.68 0 0 Z M46 14 C46.33 14.66 46.66 15.32 47 16 C47.33 15.34 47.66 14.68 48 14 C47.34 14 46.68 14 46 14 Z M49 15 C49 15.33 49 15.66 49 16 C54.28 16 59.56 16 65 16 C65 15.67 65 15.34 65 15 C59.72 15 54.44 15 49 15 Z " fill="#020103" transform="translate(159,25)"/>
<path d="M0 0 C4.06981003 -0.51184264 5.5916108 -0.3106565 8.91259766 2.21557617 C9.928709 3.22590043 10.92845572 4.2528646 11.9140625 5.29296875 C12.45098724 5.83601151 12.98791199 6.37905426 13.54110718 6.93855286 C15.25028687 8.67461094 16.93724852 10.4306297 18.625 12.1875 C19.76688967 13.35092559 20.91010647 14.5130502 22.0546875 15.67382812 C30.27086925 24.05393846 30.27086925 24.05393846 33.16552734 27.80981445 C34.88669567 30.25346665 34.88669567 30.25346665 38 31 C43.02157412 26.08090698 47.89220782 21.12935061 52.39453125 15.7265625 C54.11365309 13.87777453 55.9422984 12.45512087 58 11 C61.20710059 17.04415112 61.20710059 17.04415112 60.1875 21.75 C59.795625 22.8225 59.40375 23.895 59 25 C59 25.99 59 26.98 59 28 C57.390625 29.6484375 57.390625 29.6484375 55.25 31.375 C52.70086157 33.49253827 50.75404152 35.31243375 48.6875 37.9375 C48.130625 38.618125 47.57375 39.29875 47 40 C46.01 40 45.02 40 44 40 C44.33 40.99 44.66 41.98 45 43 C45.99 43 46.98 43 48 43 C48 45.31 48 47.62 48 50 C40.81781182 49.09197525 36.93764849 46.95220112 31.99609375 41.75 C31.38733902 41.13608398 30.77858429 40.52216797 30.15138245 39.88964844 C28.87868994 38.5999184 27.61434662 37.30190025 26.3581543 35.99609375 C24.42762248 33.98973451 22.47350932 32.00895533 20.51367188 30.03125 C19.27722325 28.77222884 18.04214593 27.51185915 16.80859375 26.25 C16.22436142 25.65413086 15.64012909 25.05826172 15.03819275 24.44433594 C11 20.23563925 11 20.23563925 11 18 C7.74360341 17.05728998 7.74360341 17.05728998 4 17 C1.25 19.25 1.25 19.25 -1 22 C-3.3125 23.3125 -3.3125 23.3125 -5 24 C-4.67 24.99 -4.34 25.98 -4 27 C-4.99 27.66 -5.98 28.32 -7 29 C-10.01540336 25.98459664 -9.36833533 22.59795719 -9.375 18.5625 C-9.41173828 17.39750977 -9.41173828 17.39750977 -9.44921875 16.20898438 C-9.47849598 10.54384124 -9.47849598 10.54384124 -7.2265625 7.984375 C-4.93735193 6.97230296 -3.48674865 6.6243599 -1 6.6875 C-0.01 6.69330078 -0.01 6.69330078 1 6.69921875 C3.30719711 7.04619957 4.97485563 7.86537671 7 9 C6.4946875 8.43410156 5.989375 7.86820313 5.46875 7.28515625 C4.8190625 6.55167969 4.169375 5.81820313 3.5 5.0625 C2.8503125 4.33160156 2.200625 3.60070312 1.53125 2.84765625 C0 1 0 1 0 0 Z M0 11 C1 14 1 14 1 14 Z M-2 12 C-1 14 -1 14 -1 14 Z M50 31 C50 34 50 34 50 34 Z " fill="#1C1C1C" transform="translate(41,25)"/>
<path d="M0 0 C0.33 0.66 0.66 1.32 1 2 C0.34938905 3.67299959 -0.32033324 5.33859237 -1 7 C-2.4406526 12.90667568 -2.08794149 18.96135115 -2 25 C-1.34 24.01 -0.68 23.02 0 22 C0.99 22 1.98 22 3 22 C3.33 20.68 3.66 19.36 4 18 C4.66 18.66 5.32 19.32 6 20 C6.66 19.34 7.32 18.68 8 18 C7.34 16.68 6.68 15.36 6 14 C7.3303125 13.38125 7.3303125 13.38125 8.6875 12.75 C12.03541747 11.13718377 12.03541747 11.13718377 14.625 8.75 C17 7 17 7 19.3125 7.25 C19.869375 7.4975 20.42625 7.745 21 8 C20.01 8.99 19.02 9.98 18 11 C20.475 11.495 20.475 11.495 23 12 C22.01 12.66 21.02 13.32 20 14 C20.66 15.32 21.32 16.64 22 18 C20.71064081 19.14842923 19.41843421 20.29366227 18.125 21.4375 C17.40570313 22.07558594 16.68640625 22.71367188 15.9453125 23.37109375 C14 25 14 25 12 26 C13.66751148 22.05860922 16.22710649 19.2107188 19 16 C17.68 15.34 16.36 14.68 15 14 C12.45073122 16.34595287 9.94149217 18.73085171 7.4375 21.125 C6.71369141 21.79015625 5.98988281 22.4553125 5.24414062 23.140625 C3.29948988 25.02076127 1.54609433 26.77923596 0 29 C-0.1693399 32.39675854 -0.1693399 32.39675854 1 35 C3.64 33.02 6.28 31.04 9 29 C6.98127747 33.03744506 4.91899872 35.62010675 2 39 C3.32 39 4.64 39 6 39 C6.66 38.01 7.32 37.02 8 36 C9.33333333 36 10.66666667 36 12 36 C13.35432675 34.68799596 14.68733482 33.35368596 16 32 C16.33 31.67 16.66 31.34 17 31 C16.67 30.34 16.34 29.68 16 29 C17.32 28.67 18.64 28.34 20 28 C21.25172182 31.75516546 21.68603757 35.04407344 22 39 C21.34 39.66 20.68 40.32 20 41 C21.32 41.99 22.64 42.98 24 44 C24.66 42.35 25.32 40.7 26 39 C25.01 39 24.02 39 23 39 C23 38.34 23 37.68 23 37 C23.99 36.505 23.99 36.505 25 36 C24.67 35.34 24.34 34.68 24 34 C25.32 34.66 26.64 35.32 28 36 C28 37.32 28 38.64 28 40 C28.30404678 41.67225729 28.63128912 43.34080104 29 45 C30.32 45 31.64 45 33 45 C33 44.34 33 43.68 33 43 C35.38564077 43.57584432 37.66682784 44.22227595 40 45 C39.175 44.21625 38.35 43.4325 37.5 42.625 C35 40 35 40 35 38 C35.66 38 36.32 38 37 38 C38.3302109 39.51227067 39.59027591 41.08669024 40.8125 42.6875 C43.69709402 46.39176009 46.57833384 49.79218798 50 53 C49.4375 54.875 49.4375 54.875 48 57 C38.78131768 60.92284354 28.12358167 59.59249501 19 56 C7.15289158 49.83643144 0.43524046 40.83347546 -4.3125 28.625 C-6.19645684 18.69140937 -4.92681948 10.28874166 -1 1 C-0.67 0.67 -0.34 0.34 0 0 Z M17 33 C16.67 34.65 16.34 36.3 16 38 C16.66 37.67 17.32 37.34 18 37 C17.67 35.68 17.34 34.36 17 33 Z M14 35 C15 38 15 38 15 38 Z M9 43 C10 45 10 45 10 45 Z M11 46 C11 46.66 11 47.32 11 48 C11.99 47.67 12.98 47.34 14 47 C13.01 46.67 12.02 46.34 11 46 Z M24 46 C28 47 28 47 28 47 Z M25 55 C25 55.33 25 55.66 25 56 C26.65 56 28.3 56 30 56 C30 55.67 30 55.34 30 55 C28.35 55 26.7 55 25 55 Z M34 56 C38 57 38 57 38 57 Z " fill="#0B090B" transform="translate(29,34)"/>
<path d="M0 0 C1.62032062 0.33592013 3.24626311 0.64510065 4.875 0.9375 C12.81492466 2.93576752 18.1736355 8.54415153 24 14 C24 13.34 24 12.68 24 12 C24 11.01 24 10.02 24 9 C24.99 9.99 24.99 9.99 26 11 C26.33 10.67 26.66 10.34 27 10 C29.33297433 9.95907063 31.66705225 9.95758277 34 10 C34.02697137 12.60423592 34.04682489 15.20819244 34.0625 17.8125 C34.07087891 18.55048828 34.07925781 19.28847656 34.08789062 20.04882812 C34.10259828 23.29922068 34.03531702 25.89404895 33 29 C33 29.99 33 30.98 33 32 C31.203125 31.84765625 31.203125 31.84765625 29 31 C27.359375 28.55859375 27.359375 28.55859375 25.75 25.4375 C19.72542613 14.70025736 12.02020583 8.16985735 0.1315918 4.40893555 C-12.13805012 1.05284086 -24.74844673 1.92263041 -36 8 C-46.71789441 14.80578212 -54.46853991 24.40816532 -57.3125 36.9375 C-59.28520662 49.07723307 -57.90325921 61.54477312 -51 72 C-43.47725671 81.8813083 -34.93842882 87.71260656 -23 91 C-23 91.33 -23 91.66 -23 92 C-30.03664095 92.67015628 -33.4229357 91.67938746 -39.0546875 87.41015625 C-41.04682842 85.81730038 -41.04682842 85.81730038 -44 85 C-44.99 85.99 -44.99 85.99 -46 87 C-45.34 88.32 -44.68 89.64 -44 91 C-45.485 90.505 -45.485 90.505 -47 90 C-49.33299825 89.96045766 -51.66708189 89.95598268 -54 90 C-54.1954625 87.75067773 -54.38108226 85.50049858 -54.5625 83.25 C-54.66691406 81.99703125 -54.77132812 80.7440625 -54.87890625 79.453125 C-54.97876723 76.60547636 -54.90584295 74.65713933 -54 72 C-54.66 72 -55.32 72 -56 72 C-56.33 69.36 -56.66 66.72 -57 64 C-57.66 64 -58.32 64 -59 64 C-60.96418805 59.0464899 -61.3486151 54.80708908 -61.3125 49.5625 C-61.31056641 48.39291748 -61.31056641 48.39291748 -61.30859375 47.19970703 C-61.18459846 39.56004729 -59.83485934 32.40496805 -58 25 C-57.34 25.33 -56.68 25.66 -56 26 C-52.43720818 20.64530565 -52.43720818 20.64530565 -49.9375 14.75 C-48.82630635 11.49049862 -47.70988561 10.10768881 -45 8 C-42 6.875 -42 6.875 -39 6 C-36.78721656 5.02377201 -35.12591492 4.10702768 -33.28125 2.5390625 C-25.60345665 -2.64081863 -7.88509232 -5.25672821 0 0 Z M-9 -1 C-9 -0.67 -9 -0.34 -9 0 C-7.02 0 -5.04 0 -3 0 C-3 -0.33 -3 -0.66 -3 -1 C-4.98 -1 -6.96 -1 -9 -1 Z M25 15 C25.99 16.485 25.99 16.485 27 18 C27 17.01 27 16.02 27 15 C26.34 15 25.68 15 25 15 Z M-53 75 C-51.88145414 78.72614153 -51.88145414 78.72614153 -49 81 C-49.33 79.35 -49.66 77.7 -50 76 C-50.99 75.67 -51.98 75.34 -53 75 Z M-54 79 C-53.67 79.66 -53.34 80.32 -53 81 C-52.67 80.34 -52.34 79.68 -52 79 C-52.66 79 -53.32 79 -54 79 Z M-48 80 C-48 80.66 -48 81.32 -48 82 C-47.34 81.67 -46.68 81.34 -46 81 C-46.66 80.67 -47.32 80.34 -48 80 Z M-46 82 C-45 84 -45 84 -45 84 Z " fill="#161616" transform="translate(78,6)"/>
<path d="M0 0 C0.33 0 0.66 0 1 0 C1.85074809 9.78360303 -2.96173113 18.54966381 -9 26 C-17.54924475 35.09075161 -27.58321137 40.32043793 -40.03125 41.21875 C-51.32515209 41.54143292 -60.74526768 39.58509799 -70 33 C-69.814375 32.38125 -69.62875 31.7625 -69.4375 31.125 C-68.76313824 28.95839822 -68.76313824 28.95839822 -70 27 C-66.99884257 28.09132997 -64.48340553 29.31790429 -61.75 31 C-53.62865933 35.69077435 -43.80856434 36.17012092 -34.76171875 34.34765625 C-23.49216258 31.26210209 -15.85017481 26.17358037 -9.375 16.4296875 C-8.00582781 14.01029801 -6.96394053 11.60449315 -6 9 C-5.34 9 -4.68 9 -4 9 C-3.34 7.68 -2.68 6.36 -2 5 C-1.34 5 -0.68 5 0 5 C0 3.35 0 1.7 0 0 Z " fill="#D4D3D5" transform="translate(108,57)"/>
<path d="M0 0 C1.32 0.66 2.64 1.32 4 2 C4 5.58912412 3.33563446 6.10857029 1 8.6875 C0.01 9.780625 -0.98 10.87375 -2 12 C0.31 9.69 2.62 7.38 5 5 C8.98301262 6.99150631 9.62958743 7.5866059 12 11 C14.95868807 15.06268729 14.95868807 15.06268729 18.93237305 17.95092773 C21.3729909 19.18924807 22.78853953 20.6548347 24.64453125 22.66015625 C25.32193359 23.37107422 25.99933594 24.08199219 26.69726562 24.81445312 C28.10388936 26.30939673 29.50240987 27.81200772 30.89257812 29.32226562 C35.20541158 33.96475992 35.20541158 33.96475992 41.01171875 35.99609375 C41.99785156 35.99738281 42.98398438 35.99867187 44 36 C43.01 36.33 42.02 36.66 41 37 C40.505 37.99 40.505 37.99 40 39 C39.67 38.67 39.34 38.34 39 38 C38.01 38.33 37.02 38.66 36 39 C33.25177691 38.08392564 32.23101402 37.39272383 30.75 34.875 C30.5025 34.25625 30.255 33.6375 30 33 C29.01 33 28.02 33 27 33 C25.59123604 31.30860001 24.5271923 29.50481911 23.37890625 27.62890625 C21.6675627 25.60729078 20.57016389 25.43083672 18 25 C14.58841744 23.86280581 13.88145399 22.95657056 12 20 C12 19.34 12 18.68 12 18 C11.34 18 10.68 18 10 18 C9.67 16.68 9.34 15.36 9 14 C8.34 14 7.68 14 7 14 C6.67 13.34 6.34 12.68 6 12 C3.47636012 12.62533375 3.47636012 12.62533375 1 14 C0.10613836 16.54775306 0.10613836 16.54775306 0 19 C-1.32 19.33 -2.64 19.66 -4 20 C-4 20.99 -4 21.98 -4 23 C-5.65 23 -7.3 23 -9 23 C-9 23.99 -9 24.98 -9 26 C-10.32 26 -11.64 26 -13 26 C-11.62845496 23.04590299 -10.01136276 20.55991624 -8 18 C-9.98 19.65 -11.96 21.3 -14 23 C-16 20 -16 20 -15.83618164 17.5480957 C-14.88195982 14.64029625 -13.80962224 13.34543326 -11.62109375 11.23046875 C-10.94755859 10.56982422 -10.27402344 9.90917969 -9.58007812 9.22851562 C-8.87302734 8.55498047 -8.16597656 7.88144531 -7.4375 7.1875 C-6.72658203 6.49462891 -6.01566406 5.80175781 -5.28320312 5.08789062 C-3.53081688 3.3825483 -1.76978531 1.68724824 0 0 Z M-4 16 C-4.33 16.66 -4.66 17.32 -5 18 C-4.34 18 -3.68 18 -3 18 C-3.33 17.34 -3.66 16.68 -4 16 Z M14 18 C14.66 19.32 15.32 20.64 16 22 C16.99 22 17.98 22 19 22 C17.35 20.68 15.7 19.36 14 18 Z " fill="#9B9B9C" transform="translate(44,47)"/>
<path d="M0 0 C0.495 1.485 0.495 1.485 1 3 C1.99 2.67 2.98 2.34 4 2 C4.4950495 36.00990099 4.4950495 36.00990099 1 43 C0.40445313 43.26554687 -0.19109375 43.53109375 -0.8046875 43.8046875 C-3.72640987 45.39551854 -5.13866521 47.47403608 -7.125 50.125 C-8.37124419 51.78509132 -9.65340011 53.42022264 -11 55 C-11.66 55 -12.32 55 -13 55 C-12.67 55.99 -12.34 56.98 -12 58 C-16.86015069 60.61700422 -21.74492325 62.39001091 -27 64 C-28.8253125 64.5878125 -28.8253125 64.5878125 -30.6875 65.1875 C-39.66811435 67.32488622 -49.19662019 66.42851857 -58 64 C-58 63.67 -58 63.34 -58 63 C-53.16429468 62.24145799 -48.64722146 61.99535033 -43.75 62.125 C-31.14454343 62.16866786 -21.04096121 58.47624248 -11.7109375 49.89453125 C-5.6908192 43.52493043 -0.70542077 35.93532976 0 27 C-2.51083114 28.25541557 -2.87125446 29.50063488 -4 32 C-5.40037237 27.98840698 -4.95758094 23.97470629 -4.6875 19.8125 C-4.65205078 19.07580078 -4.61660156 18.33910156 -4.58007812 17.58007812 C-4.46503123 15.71357098 -4.24097482 13.85445837 -4 12 C-3.34 11.67 -2.68 11.34 -2 11 C-1.57038779 8.94068468 -1.57038779 8.94068468 -1.4375 6.5625 C-1.09333333 2.18666667 -1.09333333 2.18666667 0 0 Z " fill="#2C2B2D" transform="translate(108,35)"/>
<path d="M0 0 C12.90995064 0.21749293 23.2157534 4.86547985 32.61328125 13.56689453 C38.56729139 19.85399614 42.77177884 26.53875732 42.92578125 35.31689453 C42.59578125 36.30689453 42.26578125 37.29689453 41.92578125 38.31689453 C41.70252311 40.37583074 41.51872366 42.43923106 41.36328125 44.50439453 C41.27949219 45.59107422 41.19570312 46.67775391 41.109375 47.79736328 C41.01849609 49.04453125 41.01849609 49.04453125 40.92578125 50.31689453 C40.59578125 50.31689453 40.26578125 50.31689453 39.92578125 50.31689453 C39.8278125 49.35009766 39.72984375 48.38330078 39.62890625 47.38720703 C38.16051516 34.60207768 35.34945094 24.70812474 25.92578125 15.31689453 C17.05228616 8.52959958 7.91686918 5.79495704 -3.13671875 6.12939453 C-4.00232422 6.14292969 -4.86792969 6.15646484 -5.75976562 6.17041016 C-7.86486049 6.20530123 -9.96962849 6.25908788 -12.07421875 6.31689453 C-11.08421875 5.32689453 -10.09421875 4.33689453 -9.07421875 3.31689453 C-9.73421875 2.65689453 -10.39421875 1.99689453 -11.07421875 1.31689453 C-8.81254556 -0.94477866 -3.1392134 0.00593549 0 0 Z " fill="#D1D0D1" transform="translate(65.07421875,7.68310546875)"/>
<path d="M0 0 C0.66 0.66 1.32 1.32 2 2 C2.99 2.33 3.98 2.66 5 3 C5 2.34 5 1.68 5 1 C8 1 8 1 9.6875 2.375 C11 4 11 4 11 6 C10.01 6 9.02 6 8 6 C9.82070022 10.18761051 10.82896081 12.17517035 15 14 C16 15.33333333 17 16.66666667 18 18 C19.91666667 19.16666667 19.91666667 19.16666667 22 20 C23.33333333 20.66666667 24.66666667 21.33333333 26 22 C26 23.66666667 26 25.33333333 26 27 C26.99 27 27.98 27 29 27 C31.1875 29 31.1875 29 33 31 C34.19453368 29.9650837 34.19453368 29.9650837 34.625 27.875 C35.9935967 25.01338872 37.1744084 23.71124592 39.4375 21.5625 C42.4993661 18.6537272 44.36385978 15.94598524 46 12 C47.32 12.33 48.64 12.66 50 13 C50.6875 14.796875 50.6875 14.796875 51 17 C49.8125 18.640625 49.8125 18.640625 48 20.25 C45.27028383 22.77852195 42.77802343 25.34515731 40.375 28.1875 C37.81133583 31.16783193 35.19420247 33.67694366 32 36 C28.6023301 33.34816008 25.64454508 30.69503407 22.85546875 27.40625 C18.69645924 22.60218983 14.32649681 18.03270156 9.875 13.5 C9.08996094 12.67757812 8.30492188 11.85515625 7.49609375 11.0078125 C6.73167969 10.23179688 5.96726562 9.45578125 5.1796875 8.65625 C4.49632324 7.95306641 3.81295898 7.24988281 3.10888672 6.52539062 C0.5466711 4.67210014 -0.90645568 4.68423582 -4 5 C-4.33 5.66 -4.66 6.32 -5 7 C-5.61875 6.649375 -6.2375 6.29875 -6.875 5.9375 C-7.926875 5.4734375 -7.926875 5.4734375 -9 5 C-9.99 5.495 -9.99 5.495 -11 6 C-10.67 5.01 -10.34 4.02 -10 3 C-7.71484375 2.05078125 -7.71484375 2.05078125 -4.9375 1.3125 C-4.01839844 1.06113281 -3.09929688 0.80976563 -2.15234375 0.55078125 C-1.44207031 0.36902344 -0.73179688 0.18726562 0 0 Z M23 22 C23 22.99 23 23.98 23 25 C23.66 24.34 24.32 23.68 25 23 C24.34 22.67 23.68 22.34 23 22 Z " fill="#120C0E" transform="translate(46,21)"/>
<path d="M0 0 C-0.10828125 0.87398437 -0.10828125 0.87398437 -0.21875 1.765625 C-1.70507987 14.89487214 -2.24179982 27.28806015 6 38.4375 C6.98159196 39.64026078 7.98001797 40.82961848 9 42 C11.91826292 45.39149475 13.48663726 47.50807606 14 52 C10.17262423 51.88401892 8.18479371 50.54379798 5.5 48 C-3.28126559 38.66513288 -7.2538292 26.57615776 -7.16796875 13.9375 C-6.91523655 9.51762523 -6.04328273 5.29422626 -5 1 C-2 0 -2 0 0 0 Z " fill="#929292" transform="translate(26,37)"/>
<path d="M0 0 C0.33 0.66 0.66 1.32 1 2 C0.34938905 3.67299959 -0.32033324 5.33859237 -1 7 C-2.4406526 12.90667568 -2.08794149 18.96135115 -2 25 C-1.34 24.01 -0.68 23.02 0 22 C0.99 22 1.98 22 3 22 C3.33 20.68 3.66 19.36 4 18 C4.66 18.66 5.32 19.32 6 20 C6.66 19.34 7.32 18.68 8 18 C7.34 16.68 6.68 15.36 6 14 C7.3303125 13.38125 7.3303125 13.38125 8.6875 12.75 C12.03541747 11.13718377 12.03541747 11.13718377 14.625 8.75 C17 7 17 7 19.3125 7.25 C19.869375 7.4975 20.42625 7.745 21 8 C20.01 8.99 19.02 9.98 18 11 C20.475 11.495 20.475 11.495 23 12 C22.01 12.66 21.02 13.32 20 14 C20.66 15.32 21.32 16.64 22 18 C20.71064081 19.14842923 19.41843421 20.29366227 18.125 21.4375 C17.40570313 22.07558594 16.68640625 22.71367188 15.9453125 23.37109375 C14 25 14 25 12 26 C13.66751148 22.05860922 16.22710649 19.2107188 19 16 C17.68 15.34 16.36 14.68 15 14 C12.45073122 16.34595287 9.94149217 18.73085171 7.4375 21.125 C6.71369141 21.79015625 5.98988281 22.4553125 5.24414062 23.140625 C3.29948988 25.02076127 1.54609433 26.77923596 0 29 C-0.1693399 32.39675854 -0.1693399 32.39675854 1 35 C3.64 33.02 6.28 31.04 9 29 C6.98127747 33.03744506 4.91899872 35.62010675 2 39 C2.556875 39.04125 3.11375 39.0825 3.6875 39.125 C7.294395 40.48977108 8.73038496 42.91080176 11 46 C11 46.66 11 47.32 11 48 C11.66 48 12.32 48 13 48 C13.33 48.66 13.66 49.32 14 50 C14.99 49.34 15.98 48.68 17 48 C16.67 49.98 16.34 51.96 16 54 C5.58956444 47.75373867 0.03191539 39.79635387 -4.3125 28.625 C-6.19645684 18.69140937 -4.92681948 10.28874166 -1 1 C-0.67 0.67 -0.34 0.34 0 0 Z " fill="#2B2A2B" transform="translate(29,34)"/>
<path d="M0 0 C2.81988438 -0.2321993 4.4604749 -0.36064248 6.8540802 1.23934937 C7.4292186 1.81955841 8.00435699 2.39976746 8.59692383 2.99755859 C9.58738457 3.97890274 9.58738457 3.97890274 10.59785461 4.98007202 C11.2938829 5.69563263 11.98991119 6.41119324 12.70703125 7.1484375 C13.79512337 8.2400267 13.79512337 8.2400267 14.90519714 9.35366821 C16.4348093 10.89301945 17.95838689 12.43838721 19.47631836 13.98925781 C21.80868708 16.3711062 24.15927227 18.7336961 26.51367188 21.09375 C27.99589404 22.59005464 29.47705133 24.08741504 30.95703125 25.5859375 C31.66318069 26.29744965 32.36933014 27.00896179 33.09687805 27.74203491 C33.74142441 28.40256866 34.38597076 29.06310242 35.05004883 29.74365234 C35.62120926 30.32545258 36.19236969 30.90725281 36.78083801 31.50668335 C38 33 38 33 38 35 C39.98 35 41.96 35 44 35 C44 36.32 44 37.64 44 39 C36.81781182 38.09197525 32.93764849 35.95220112 27.99609375 30.75 C27.38733902 30.13608398 26.77858429 29.52216797 26.15138245 28.88964844 C24.87868994 27.5999184 23.61434662 26.30190025 22.3581543 24.99609375 C20.42762248 22.98973451 18.47350932 21.00895533 16.51367188 19.03125 C15.27722325 17.77222884 14.04214593 16.51185915 12.80859375 15.25 C12.22436142 14.65413086 11.64012909 14.05826172 11.03819275 13.44433594 C7 9.23563925 7 9.23563925 7 7 C6.401875 6.773125 5.80375 6.54625 5.1875 6.3125 C2.43648112 4.66188867 1.47515363 2.8027919 0 0 Z " fill="#F0F1F0" transform="translate(45,36)"/>
<path d="M0 0 C1.32 0 2.64 0 4 0 C5.375 2.0625 5.375 2.0625 7 5 C12.71305724 12.16075372 19.36920932 18.44583389 25.875 24.875 C28.16689608 27.14039287 30.45551186 29.40902673 32.7421875 31.6796875 C33.53422073 32.45927322 33.53422073 32.45927322 34.34225464 33.25460815 C35.5804402 34.48429329 36.79313757 35.73955877 38 37 C38 37.33 38 37.66 38 38 C34.80322566 38.35278613 33.43264661 38.32907982 30.82763672 36.34765625 C30.11881348 35.59355469 29.40999023 34.83945313 28.6796875 34.0625 C27.89722656 33.25039062 27.11476563 32.43828125 26.30859375 31.6015625 C25.50550781 30.74304688 24.70242187 29.88453125 23.875 29 C22.2750981 27.30598622 20.66863395 25.61813845 19.0546875 23.9375 C18.34812012 23.18339844 17.64155273 22.42929688 16.91357422 21.65234375 C15.04293389 19.67322275 15.04293389 19.67322275 12 20 C9.84375 18.0234375 9.84375 18.0234375 7.5 15.375 C6.7265625 14.51648437 5.953125 13.65796875 5.15625 12.7734375 C2.97645046 9.96970983 1.53659885 7.18933598 0 4 C-0.66 3.34 -1.32 2.68 -2 2 C-1.34 1.34 -0.68 0.68 0 0 Z " fill="#0F4D2A" transform="translate(48,43)"/>
<path d="M0 0 C4.06981003 -0.51184264 5.5916108 -0.3106565 8.91259766 2.21557617 C9.928709 3.22590043 10.92845572 4.2528646 11.9140625 5.29296875 C12.45098724 5.83601151 12.98791199 6.37905426 13.54110718 6.93855286 C15.25028687 8.67461094 16.93724852 10.4306297 18.625 12.1875 C19.76688967 13.35092559 20.91010647 14.5130502 22.0546875 15.67382812 C26.58647274 20.29603117 30.98717293 24.90806115 35 30 C35.7425 30.7425 36.485 31.485 37.25 32.25 C37.8275 32.8275 38.405 33.405 39 34 C39 34.33 39 34.66 39 35 C36.13746422 35.24479492 34.52660461 35.35738207 32.10795593 33.71595764 C31.51505264 33.1149675 30.92214935 32.51397736 30.3112793 31.89477539 C29.63095139 31.21729752 28.95062347 30.53981964 28.24967957 29.84181213 C27.5317775 29.10124069 26.81387543 28.36066925 26.07421875 27.59765625 C25.32662796 26.8453624 24.57903717 26.09306854 23.80879211 25.31797791 C21.42311398 22.91093405 19.05563304 20.48679429 16.6875 18.0625 C15.07336043 16.43185825 13.45813858 14.80228707 11.84179688 13.17382812 C8.90218843 10.20020994 5.96290113 7.22637799 3.04174805 4.23461914 C2.45282272 3.6328334 1.8638974 3.03104767 1.25712585 2.411026 C0 1 0 1 0 0 Z " fill="#E2721F" transform="translate(41,25)"/>
<path d="M0 0 C7.27050374 5.18269017 13.35020418 12.6479107 15.4375 21.4609375 C14.4475 21.9559375 14.4475 21.9559375 13.4375 22.4609375 C13.169375 21.6565625 12.90125 20.8521875 12.625 20.0234375 C12.0371875 18.755 12.0371875 18.755 11.4375 17.4609375 C10.4475 17.1309375 9.4575 16.8009375 8.4375 16.4609375 C7.08127755 15.49220718 5.74332947 14.49659535 4.4375 13.4609375 C1.9625 15.9359375 1.9625 15.9359375 -0.5625 18.4609375 C-0.61645478 16.83629908 -0.65527195 15.21115209 -0.6875 13.5859375 C-0.71070313 12.68101563 -0.73390625 11.77609375 -0.7578125 10.84375 C-0.5625 8.4609375 -0.5625 8.4609375 1.4375 6.4609375 C0.4475 5.8009375 -0.5425 5.1409375 -1.5625 4.4609375 C-2.0575 2.9759375 -2.0575 2.9759375 -2.5625 1.4609375 C-4.24837074 0.25785513 -4.24837074 0.25785513 -6.3125 -0.6640625 C-6.98796875 -0.99664063 -7.6634375 -1.32921875 -8.359375 -1.671875 C-18.15078153 -5.52593927 -31.00984512 -4.65149887 -40.5625 -0.5390625 C-42.24138441 0.44028674 -43.91428756 1.43080473 -45.5625 2.4609375 C-46.2225 2.1309375 -46.8825 1.8009375 -47.5625 1.4609375 C-46.04832906 0.49211183 -44.52575846 -0.46359002 -43 -1.4140625 C-42.15308594 -1.94773437 -41.30617188 -2.48140625 -40.43359375 -3.03125 C-27.26022335 -9.94950983 -12.31272846 -7.39514484 0 0 Z M1.4375 8.4609375 C1.4375 9.1209375 1.4375 9.7809375 1.4375 10.4609375 C2.0975 10.1309375 2.7575 9.8009375 3.4375 9.4609375 C2.7775 9.1309375 2.1175 8.8009375 1.4375 8.4609375 Z " fill="#4B4A4A" transform="translate(87.5625,19.5390625)"/>
<path d="M0 0 C0.66 0 1.32 0 2 0 C1.67 0.99 1.34 1.98 1 3 C-62.36 3.33 -125.72 3.66 -191 4 C-191 3.34 -191 2.68 -191 2 C-190.02171266 1.99576806 -189.04342531 1.99153612 -188.0354929 1.98717594 C-164.26798061 1.88413402 -140.50049956 1.77540543 -116.73304081 1.66066074 C-105.2394368 1.60530449 -93.7458297 1.55181861 -82.25219727 1.50268555 C-72.23822861 1.45987307 -62.22428303 1.41360261 -52.21034998 1.36312145 C-46.90455911 1.33649678 -41.59877289 1.31164321 -36.2929554 1.29092598 C-31.30506984 1.27139564 -26.31722832 1.24726289 -21.32938194 1.21950912 C-19.49310731 1.21011953 -17.656823 1.20245117 -15.82053375 1.19658089 C-13.32477011 1.18835198 -10.82911427 1.1740847 -8.33338928 1.15821838 C-7.59702195 1.15724028 -6.86065461 1.15626217 -6.10197312 1.15525442 C-2.76628735 1.4180742 -2.76628735 1.4180742 0 0 Z " fill="#020003" transform="translate(318,76)"/>
<path d="M0 0 C0.639375 0.66 1.27875 1.32 1.9375 2 C2.95366301 3.00474545 3.97526633 4.00399718 5 5 C5.65484375 5.639375 6.3096875 6.27875 6.984375 6.9375 C13.80006688 13.31814771 21.00924812 17.39741393 30 20 C30 20.33 30 20.66 30 21 C22.96335905 21.67015628 19.5770643 20.67938746 13.9453125 16.41015625 C11.95317158 14.81730038 11.95317158 14.81730038 9 14 C8.34 14.66 7.68 15.32 7 16 C7.66 17.32 8.32 18.64 9 20 C8.01 19.67 7.02 19.34 6 19 C3.66700175 18.96045766 1.33291811 18.95598268 -1 19 C-1.22307542 16.7722603 -1.42788178 14.54268636 -1.625 12.3125 C-1.74101562 11.07113281 -1.85703125 9.82976562 -1.9765625 8.55078125 C-1.99953004 5.07119831 -1.54051631 3.07515279 0 0 Z M0 4 C1.11854586 7.72614153 1.11854586 7.72614153 4 10 C3.67 8.35 3.34 6.7 3 5 C2.01 4.67 1.02 4.34 0 4 Z M-1 8 C-0.67 8.66 -0.34 9.32 0 10 C0.33 9.34 0.66 8.68 1 8 C0.34 8 -0.32 8 -1 8 Z M5 9 C5 9.66 5 10.32 5 11 C5.66 10.67 6.32 10.34 7 10 C6.34 9.67 5.68 9.34 5 9 Z M7 11 C8 13 8 13 8 13 Z " fill="#666666" transform="translate(25,77)"/>
<path d="M0 0 C0.67095703 0.58007812 0.67095703 0.58007812 1.35546875 1.171875 C4.04243628 3.48644831 6.73042566 5.78434053 9.5 8 C13.85687256 11.48549805 18.04750824 14.95393086 21.87109375 19.01953125 C22.38599365 19.55964844 22.90089355 20.09976563 23.43139648 20.65625 C24.45887796 21.7411425 25.47337114 22.83852024 26.47290039 23.94921875 C30.10377383 27.76469236 32.7775322 28.75846086 38 29 C37.01 29.33 36.02 29.66 35 30 C34.67 30.66 34.34 31.32 34 32 C33.67 31.67 33.34 31.34 33 31 C32.01 31.33 31.02 31.66 30 32 C27.25177691 31.08392564 26.23101402 30.39272383 24.75 27.875 C24.5025 27.25625 24.255 26.6375 24 26 C23.01 26 22.02 26 21 26 C19.59123604 24.30860001 18.5271923 22.50481911 17.37890625 20.62890625 C15.6675627 18.60729078 14.57016389 18.43083672 12 18 C8.58841744 16.86280581 7.88145399 15.95657056 6 13 C6 12.34 6 11.68 6 11 C5.34 11 4.68 11 4 11 C3.67 9.68 3.34 8.36 3 7 C2.34 7 1.68 7 1 7 C0.67 4.69 0.34 2.38 0 0 Z M8 11 C8.66 12.32 9.32 13.64 10 15 C10.99 15 11.98 15 13 15 C11.35 13.68 9.7 12.36 8 11 Z " fill="#918F8F" transform="translate(50,54)"/>
<path d="M0 0 C1.5625 1.1875 1.5625 1.1875 3 3 C2.6727227 7.17526498 1.36656278 9.11742345 -1.59765625 11.98828125 C-2.31630859 12.69404297 -3.03496094 13.39980469 -3.77539062 14.12695312 C-4.53013672 14.84818359 -5.28488281 15.56941406 -6.0625 16.3125 C-6.82111328 17.05306641 -7.57972656 17.79363281 -8.36132812 18.55664062 C-10.23219159 20.38043834 -12.11174492 22.19424304 -14 24 C-15.32 23.34 -16.64 22.68 -18 22 C-18 19 -18 19 -16.49609375 17.23828125 C-15.81675781 16.60277344 -15.13742188 15.96726562 -14.4375 15.3125 C-10.93283669 11.94454342 -7.69828882 8.45666601 -4.54296875 4.76171875 C-3.08919634 3.10184189 -1.57858414 1.54066019 0 0 Z " fill="#D1CFD2" transform="translate(98,36)"/>
<path d="M0 0 C1.485 0.99 1.485 0.99 3 2 C3.33 1.67 3.66 1.34 4 1 C6.33297433 0.95907063 8.66705225 0.95758277 11 1 C11.02697137 3.60423592 11.04682489 6.20819244 11.0625 8.8125 C11.07087891 9.55048828 11.07925781 10.28847656 11.08789062 11.04882812 C11.10259828 14.29922068 11.03531702 16.89404895 10 20 C10 20.99 10 21.98 10 23 C8.23828125 22.8671875 8.23828125 22.8671875 6 22 C4.04296875 19.3828125 4.04296875 19.3828125 2.1875 16.125 C1.24970703 14.52011719 1.24970703 14.52011719 0.29296875 12.8828125 C-1 10 -1 10 0 7 C1.32 7.66 2.64 8.32 4 9 C4 8.01 4 7.02 4 6 C3.34 5.67 2.68 5.34 2 5 C1.27840576 3.35636866 0.60648579 1.68949614 0 0 Z " fill="#020102" transform="translate(101,15)"/>
<path d="M0 0 C0.33 0.99 0.66 1.98 1 3 C1.99 2.67 2.98 2.34 4 2 C4 10.58 4 19.16 4 28 C3.01 26.68 2.02 25.36 1 24 C0.67 24.99 0.34 25.98 0 27 C-0.66 27.33 -1.32 27.66 -2 28 C-3.13350534 30.01669827 -3.13350534 30.01669827 -4 32 C-5.40037237 27.98840698 -4.95758094 23.97470629 -4.6875 19.8125 C-4.65205078 19.07580078 -4.61660156 18.33910156 -4.58007812 17.58007812 C-4.46503123 15.71357098 -4.24097482 13.85445837 -4 12 C-3.34 11.67 -2.68 11.34 -2 11 C-1.57038779 8.94068468 -1.57038779 8.94068468 -1.4375 6.5625 C-1.09333333 2.18666667 -1.09333333 2.18666667 0 0 Z " fill="#C0BEC1" transform="translate(108,35)"/>
<path d="M0 0 C0.928125 0.8971875 0.928125 0.8971875 1.875 1.8125 C0.25 2.5 0.25 2.5 -2.125 2.8125 C-4.15773074 1.88083174 -6.15884339 0.8775015 -8.125 -0.1875 C-12.97960905 -1.72701661 -18.0920965 -1.64367699 -23.125 -1.1875 C-26.03130368 0.2355984 -26.03130368 0.2355984 -28.125 1.8125 C-29.115 1.4825 -30.105 1.1525 -31.125 0.8125 C-30.135 0.1525 -29.145 -0.5075 -28.125 -1.1875 C-29.07375 -0.6925 -30.0225 -0.1975 -31 0.3125 C-34.125 1.8125 -34.125 1.8125 -36.125 1.8125 C-36.455 2.4725 -36.785 3.1325 -37.125 3.8125 C-37.785 3.1525 -38.445 2.4925 -39.125 1.8125 C-41.72780568 2.13291397 -41.72780568 2.13291397 -44.125 2.8125 C-34.27660019 -8.61164378 -11.76004555 -8.23203189 0 0 Z " fill="#B8B6B7" transform="translate(85.125,20.1875)"/>
<path d="M0 0 C0.73992187 0.12117187 1.47984375 0.24234375 2.2421875 0.3671875 C11.45062518 2.14329566 17.5702609 7.47556665 24 14 C25.37109375 16.34765625 25.37109375 16.34765625 26 18 C21.55384615 18 21.55384615 18 18.875 15.375 C7.99590102 5.58381092 -3.66382193 2.72556573 -18 2 C-18 1.67 -18 1.34 -18 1 C-15.56348622 0.63737003 -13.12623023 0.28461036 -10.6875 -0.0625 C-9.99720703 -0.16626953 -9.30691406 -0.27003906 -8.59570312 -0.37695312 C-5.30415164 -0.83808836 -3.19783876 -1.06594625 0 0 Z " fill="#242223" transform="translate(78,6)"/>
<path d="M0 0 C0.556875 0.2475 1.11375 0.495 1.6875 0.75 C0.6975 1.74 -0.2925 2.73 -1.3125 3.75 C1.1625 4.245 1.1625 4.245 3.6875 4.75 C2.6975 5.41 1.7075 6.07 0.6875 6.75 C1.3475 8.07 2.0075 9.39 2.6875 10.75 C1.39814081 11.89842923 0.10593421 13.04366227 -1.1875 14.1875 C-1.90679687 14.82558594 -2.62609375 15.46367188 -3.3671875 16.12109375 C-5.3125 17.75 -5.3125 17.75 -7.3125 18.75 C-5.64498852 14.80860922 -3.08539351 11.9607188 -0.3125 8.75 C-1.6325 8.09 -2.9525 7.43 -4.3125 6.75 C-9.2625 11.7 -14.2125 16.65 -19.3125 21.75 C-19.9725 21.09 -20.6325 20.43 -21.3125 19.75 C-20.6525 18.1 -19.9925 16.45 -19.3125 14.75 C-18.3225 14.75 -17.3325 14.75 -16.3125 14.75 C-15.9825 13.43 -15.6525 12.11 -15.3125 10.75 C-14.6525 11.41 -13.9925 12.07 -13.3125 12.75 C-12.6525 12.09 -11.9925 11.43 -11.3125 10.75 C-11.9725 9.43 -12.6325 8.11 -13.3125 6.75 C-12.425625 6.3375 -11.53875 5.925 -10.625 5.5 C-7.27708253 3.88718377 -7.27708253 3.88718377 -4.6875 1.5 C-2.3125 -0.25 -2.3125 -0.25 0 0 Z " fill="#0D0E0E" transform="translate(48.3125,41.25)"/>
<path d="M0 0 C3.75310882 1.55765927 6.09417913 3.8779944 8.921875 6.76171875 C9.61739471 7.46504082 9.61739471 7.46504082 10.32696533 8.18257141 C11.80617025 9.67951598 13.27852701 11.18295749 14.75 12.6875 C20.96974647 19.02629954 27.18215004 25.29429031 34 31 C33.67 32.32 33.34 33.64 33 35 C29.37782109 35.34802225 27.58056549 35.41751156 24.57470703 33.25585938 C23.81013184 32.45986328 23.04555664 31.66386719 22.2578125 30.84375 C21.41992188 29.98652344 20.58203125 29.12929687 19.71875 28.24609375 C18.8628125 27.33988281 18.006875 26.43367188 17.125 25.5 C16.24585937 24.59378906 15.36671875 23.68757813 14.4609375 22.75390625 C12.29319755 20.51547913 10.14066925 18.26427911 8 16 C8.33 15.34 8.66 14.68 9 14 C9.52432617 14.54527344 10.04865234 15.09054688 10.58886719 15.65234375 C12.96543214 18.11194658 15.3573859 20.55601075 17.75 23 C18.575 23.85851562 19.4 24.71703125 20.25 25.6015625 C21.04921875 26.41367188 21.8484375 27.22578125 22.671875 28.0625 C23.4050293 28.81660156 24.13818359 29.57070312 24.89355469 30.34765625 C27.07834266 32.41146205 27.07834266 32.41146205 31 32 C30.61162964 31.61385025 30.22325928 31.2277005 29.82312012 30.82984924 C25.79754933 26.82632619 21.77544288 22.81934733 17.75537109 18.81030273 C16.25268527 17.31265948 14.74910507 15.81591309 13.24462891 14.32006836 C11.08783449 12.17534291 8.93423049 10.0274594 6.78125 7.87890625 C6.10316284 7.20598038 5.42507568 6.5330545 4.72644043 5.83973694 C3.79547546 4.90888527 3.79547546 4.90888527 2.84570312 3.95922852 C2.29499146 3.41073746 1.74427979 2.8622464 1.17687988 2.2971344 C0 1 0 1 0 0 Z " fill="#031F0A" transform="translate(54,48)"/>
<path d="M0 0 C-0.33 1.32 -0.66 2.64 -1 4 C-14.27663285 7.86229319 -26.36992391 9.76002099 -40 6 C-40 5.67 -40 5.34 -40 5 C-35.16429468 4.24145799 -30.64722146 3.99535033 -25.75 4.125 C-16.70820531 4.21995467 -8.66704481 -0.22808013 0 0 Z " fill="#767476" transform="translate(90,93)"/>
<path d="M0 0 C3.00115743 1.09132997 5.51659447 2.31790429 8.25 4 C11.74512135 6.08939123 15.07462751 6.76070603 19.08203125 7.3125 C21 8 21 8 22.26171875 10.0625 C22.62716797 11.0215625 22.62716797 11.0215625 23 12 C14.39762771 13.87096513 9.35242799 11.48710171 1.9375 7.25 C1.298125 6.8375 0.65875 6.425 0 6 C0.185625 5.38125 0.37125 4.7625 0.5625 4.125 C1.23686176 1.95839822 1.23686176 1.95839822 0 0 Z " fill="#C1BFC2" transform="translate(38,84)"/>
<path d="M0 0 C3.32635882 1.52572656 4.95563002 2.93344504 7 6 C5.68 5.34 4.36 4.68 3 4 C2.67 4.33 2.34 4.66 2 5 C1.01 5.495 1.01 5.495 0 6 C0 6.66 0 7.32 0 8 C-0.639375 8.2475 -1.27875 8.495 -1.9375 8.75 C-4.18741541 9.81562433 -4.18741541 9.81562433 -4.75 12.125 C-4.8325 12.74375 -4.915 13.3625 -5 14 C-6.32 14.33 -7.64 14.66 -9 15 C-9 15.99 -9 16.98 -9 18 C-10.65 18 -12.3 18 -14 18 C-14 18.99 -14 19.98 -14 21 C-15.32 21 -16.64 21 -18 21 C-16.4169423 16.7257442 -13.49431596 14.73468206 -10 12 C-9.34 12.33 -8.68 12.66 -8 13 C-8.12375 11.89591797 -8.12375 11.89591797 -8.25 10.76953125 C-7.9210201 7.12505085 -6.65277552 6.13302743 -4 3.6875 C-3.2575 2.99011719 -2.515 2.29273438 -1.75 1.57421875 C-0.88375 0.79498047 -0.88375 0.79498047 0 0 Z " fill="#DCDCDE" transform="translate(49,52)"/>
<path d="M0 0 C2.81710081 2.81710081 2.3137826 4.92687336 2.37988281 8.78125 C2.37827148 9.6784375 2.37666016 10.575625 2.375 11.5 C2.37338867 12.4075 2.37177734 13.315 2.37011719 14.25 C2.22388558 22.23252541 1.04605249 28.44627209 -4.25 34.625 C-5.11625 35.305625 -5.11625 35.305625 -6 36 C-6 32.14748214 -5.9085151 31.43431423 -4.125 28.375 C-1.67403571 23.76857775 -0.7973948 19.12011396 0 14 C-0.66 14 -1.32 14 -2 14 C-2 14.99 -2 15.98 -2 17 C-2.66 16.67 -3.32 16.34 -4 16 C-3.67 15.01 -3.34 14.02 -3 13 C-2.34 13 -1.68 13 -1 13 C-1.20625 11.96875 -1.4125 10.9375 -1.625 9.875 C-2.01194403 5.8765784 -1.51883076 3.66306243 0 0 Z " fill="#151416" transform="translate(102,41)"/>
<path d="M0 0 C-0.33 3.3 -0.66 6.6 -1 10 C-1.66 10 -2.32 10 -3 10 C-3 15.28 -3 20.56 -3 26 C-3.99 26.33 -4.98 26.66 -6 27 C-7.98331119 18.16236535 -7.12063136 9.72867014 -5 1 C-2 0 -2 0 0 0 Z " fill="#838383" transform="translate(26,37)"/>
<path d="M0 0 C0.99 0.66 1.98 1.32 3 2 C1.02 2.33 -0.96 2.66 -3 3 C-3 3.66 -3 4.32 -3 5 C-4.93370231 6.00732399 -6.87210306 7.00563288 -8.8125 8 C-10.43091797 8.8353125 -10.43091797 8.8353125 -12.08203125 9.6875 C-15 11 -15 11 -18 11 C-18 9.33333333 -18 7.66666667 -18 6 C-12.91451941 1.74737728 -6.62027546 -2.0906133 0 0 Z " fill="#A7A7A7" transform="translate(56,10)"/>
<path d="M0 0 C4.554787 3.80014774 8.95279259 7.65665546 13 12 C13 12.66 13 13.32 13 14 C14.98 14 16.96 14 19 14 C19 15.32 19 16.64 19 18 C9.07644121 17.33842941 4.31019056 10.98285047 -2 4 C-1.34 2.68 -0.68 1.36 0 0 Z " fill="#F6F6F5" transform="translate(70,57)"/>
<path d="M0 0 C0 0.66 0 1.32 0 2 C1.65 2 3.3 2 5 2 C4.67 2.66 4.34 3.32 4 4 C-3.32267885 6.19680366 -13.13850966 8.06871929 -20.38671875 4.984375 C-21.18529297 4.49710937 -21.18529297 4.49710937 -22 4 C-19.69 4 -17.38 4 -15 4 C-15 3.34 -15 2.68 -15 2 C-16.32 1.67 -17.64 1.34 -19 1 C-16.95857606 0.83038614 -14.91684689 0.66444404 -12.875 0.5 C-11.16957031 0.36078125 -11.16957031 0.36078125 -9.4296875 0.21875 C-6.27402851 0.0174779 -3.16078835 -0.03842904 0 0 Z " fill="#DFDDDF" transform="translate(76,92)"/>
<path d="M0 0 C0 0.99 0 1.98 0 3 C0.07734375 3.8146875 0.1546875 4.629375 0.234375 5.46875 C0 8 0 8 -1.609375 9.84375 C-2.31578125 10.3903125 -3.0221875 10.936875 -3.75 11.5 C-6.34009143 13.57751642 -8.1063665 15.14826845 -10.0625 17.875 C-12.76222676 20.83599064 -15.10975063 20.77556254 -19 21 C-17.47238013 17.37190281 -15.29392861 15.05653702 -12.5 12.3125 C-11.7059375 11.52488281 -10.911875 10.73726562 -10.09375 9.92578125 C-8 8 -8 8 -6 7 C-4.92695413 5.84077687 -3.88841878 4.64919636 -2.875 3.4375 C-2.33617188 2.79683594 -1.79734375 2.15617187 -1.2421875 1.49609375 C-0.83226563 1.00238281 -0.42234375 0.50867187 0 0 Z M-9 11 C-9 14 -9 14 -9 14 Z " fill="#DAD9DB" transform="translate(100,45)"/>
<path d="M0 0 C0 0.66 0 1.32 0 2 C-1.70940029 3.60228383 -3.53301528 5.01294742 -5.37109375 6.46484375 C-7.26558258 8.00756886 -7.26558258 8.00756886 -8 11 C-9.32399568 11.68502385 -10.6591458 12.34859211 -12 13 C-13.4610504 14.32774288 -14.87708074 15.70631676 -16.25 17.125 C-16.95640625 17.84945312 -17.6628125 18.57390625 -18.390625 19.3203125 C-18.92171875 19.87460937 -19.4528125 20.42890625 -20 21 C-19.67 21.66 -19.34 22.32 -19 23 C-18.01 23 -17.02 23 -16 23 C-16 23.66 -16 24.32 -16 25 C-15.01 25 -14.02 25 -13 25 C-13.33 25.99 -13.66 26.98 -14 28 C-16.1875 28.4375 -16.1875 28.4375 -19 28 C-20.98441782 25.86004673 -22.5023304 23.49824035 -24 21 C-23.01 20.34 -22.02 19.68 -21 19 C-22.32 18.34 -23.64 17.68 -25 17 C-24.34 16.67 -23.68 16.34 -23 16 C-23.33 15.34 -23.66 14.68 -24 14 C-22.02 14.66 -20.04 15.32 -18 16 C-17.2886792 15.27296875 -17.2886792 15.27296875 -16.56298828 14.53125 C-14.42218263 12.34900263 -12.27373132 10.17444263 -10.125 8 C-9.37863281 7.236875 -8.63226563 6.47375 -7.86328125 5.6875 C-7.14785156 4.965625 -6.43242188 4.24375 -5.6953125 3.5 C-5.03547363 2.8296875 -4.37563477 2.159375 -3.69580078 1.46875 C-2 0 -2 0 0 0 Z " fill="#1E1B1B" transform="translate(102,43)"/>
<path d="M0 0 C3.02777715 -0.47855444 5.14937825 -0.60488658 7.71386719 1.21875 C9.50993527 2.91975017 11.2012573 4.67857412 12.875 6.5 C13.46796875 7.12003906 14.0609375 7.74007812 14.671875 8.37890625 C16.12855211 9.90606773 17.56620705 11.45133343 19 13 C18.67 13.66 18.34 14.32 18 15 C12.45350757 14.74931108 9.78876381 11.28192922 6.1875 7.5 C5.59001953 6.89285156 4.99253906 6.28570312 4.37695312 5.66015625 C0 1.16815179 0 1.16815179 0 0 Z " fill="#E05019" transform="translate(41,25)"/>
<path d="M0 0 C0.93826619 3.06687009 1.01788333 5.45007796 0.625 8.625 C0.53476563 9.40101562 0.44453125 10.17703125 0.3515625 10.9765625 C0 13 0 13 -1 15 C-1.59554687 15.26554687 -2.19109375 15.53109375 -2.8046875 15.8046875 C-5.72640987 17.39551854 -7.13866521 19.47403608 -9.125 22.125 C-10.37124419 23.78509132 -11.65340011 25.42022264 -13 27 C-13.66 27 -14.32 27 -15 27 C-14.67 27.99 -14.34 28.98 -14 30 C-15.65 30.33 -17.3 30.66 -19 31 C-19 30.01 -19 29.02 -19 28 C-17.49609375 26.52734375 -17.49609375 26.52734375 -15.4375 24.9375 C-7.34894407 18.10875455 -3.06710647 10.02048449 0 0 Z " fill="#E6E6E6" transform="translate(110,63)"/>
<path d="M0 0 C0.66 0.66 1.32 1.32 2 2 C2.99 2 3.98 2 5 2 C5.33 2.66 5.66 3.32 6 4 C6.99 4 7.98 4 9 4 C9.84181413 7.15680299 10 9.72572803 10 13 C9.34 12.67 8.68 12.34 8 12 C5.6670134 11.95977609 3.33293334 11.95679753 1 12 C0.67 8.04 0.34 4.08 0 0 Z " fill="#0B0B0B" transform="translate(23,84)"/>
<path d="M0 0 C0.67095703 0.58007812 0.67095703 0.58007812 1.35546875 1.171875 C4.1442105 3.57411736 6.93789285 5.95031428 9.8125 8.25 C13.18274927 10.94619941 14.51660916 12.97365342 16 17 C12.98968256 17.93423645 12.13349732 18.04449911 9 17 C6 13.55555556 6 13.55555556 6 11 C5.34 11 4.68 11 4 11 C3.67 9.68 3.34 8.36 3 7 C2.34 7 1.68 7 1 7 C0.67 4.69 0.34 2.38 0 0 Z M8 11 C8.66 12.32 9.32 13.64 10 15 C10.99 15 11.98 15 13 15 C11.35 13.68 9.7 12.36 8 11 Z " fill="#A09F9E" transform="translate(50,54)"/>
<path d="M0 0 C6.01826738 4.97161218 11.66337352 10.29829243 17 16 C17 16.33 17 16.66 17 17 C14.9296875 17.390625 14.9296875 17.390625 12 17 C9.42454552 15.19550255 7.30702335 13.00443563 5.125 10.75 C4.51914063 10.16347656 3.91328125 9.57695313 3.2890625 8.97265625 C2.721875 8.39902344 2.1546875 7.82539062 1.5703125 7.234375 C1.05227051 6.71069336 0.53422852 6.18701172 0.00048828 5.64746094 C-1 4 -1 4 -0.66064453 1.79785156 C-0.44263184 1.20456055 -0.22461914 0.61126953 0 0 Z " fill="#3FB074" transform="translate(69,64)"/>
<path d="M0 0 C1.65 0.33 3.3 0.66 5 1 C5 1.66 5 2.32 5 3 C4.236875 3.061875 3.47375 3.12375 2.6875 3.1875 C-0.14170261 3.77155746 -0.14170261 3.77155746 -1.75 6.125 C-4.35733114 12.12186162 -4.07916536 18.22531984 -3.9375 24.64453125 C-4 27 -4 27 -5 29 C-5.66 29 -6.32 29 -7 29 C-7.33 29.66 -7.66 30.32 -8 31 C-8.35116482 18.37757569 -7.69083041 10.23025554 0 0 Z M-7 18 C-7 20.97 -7 23.94 -7 27 C-6.67 27 -6.34 27 -6 27 C-6 24.03 -6 21.06 -6 18 C-6.33 18 -6.66 18 -7 18 Z " fill="#B8B8B8" transform="translate(34,29)"/>
<path d="M0 0 C2.66657964 3.99986946 3.36528762 8.22567212 4.41210938 12.84375 C5.50995107 17.49754907 7.00253425 21.6522398 9 26 C7.68 26.33 6.36 26.66 5 27 C4.67 24.36 4.34 21.72 4 19 C3.34 19 2.68 19 2 19 C0.27706865 14.53665816 -0.22240791 10.89798769 -0.125 6.125 C-0.10695313 4.97257812 -0.08890625 3.82015625 -0.0703125 2.6328125 C-0.04710938 1.76398437 -0.02390625 0.89515625 0 0 Z " fill="#0A0A0A" transform="translate(17,51)"/>
<path d="M0 0 C10.48713235 10.1875 10.48713235 10.1875 11 16 C5.59950264 15.68232368 3.47662935 12.80003673 0 9 C0.33 8.34 0.66 7.68 1 7 C1.66 7.33 2.32 7.66 3 8 C2.690625 7.4225 2.38125 6.845 2.0625 6.25 C1.07416636 4.15705816 0.4831387 2.25464725 0 0 Z " fill="#A4A4A4" transform="translate(29,73)"/>
<path d="M0 0 C0.66 0.66 1.32 1.32 2 2 C2.99 2.33 3.98 2.66 5 3 C5 2.34 5 1.68 5 1 C8 1 8 1 9.6875 2.375 C11 4 11 4 11 6 C10.01 6 9.02 6 8 6 C7.67 6.66 7.34 7.32 7 8 C2.125 6.125 2.125 6.125 1 5 C-0.66617115 4.95936168 -2.33388095 4.957279 -4 5 C-4.33 5.66 -4.66 6.32 -5 7 C-5.61875 6.649375 -6.2375 6.29875 -6.875 5.9375 C-7.926875 5.4734375 -7.926875 5.4734375 -9 5 C-9.99 5.495 -9.99 5.495 -11 6 C-10.67 5.01 -10.34 4.02 -10 3 C-7.71484375 2.05078125 -7.71484375 2.05078125 -4.9375 1.3125 C-4.01839844 1.06113281 -3.09929688 0.80976563 -2.15234375 0.55078125 C-1.44207031 0.36902344 -0.73179688 0.18726562 0 0 Z " fill="#1C1010" transform="translate(46,21)"/>
<path d="M0 0 C0 0.33 0 0.66 0 1 C-1.65 1.33 -3.3 1.66 -5 2 C-5 2.33 -5 2.66 -5 3 C-6.01320313 3.13277344 -7.02640625 3.26554688 -8.0703125 3.40234375 C-9.42188204 3.58067584 -10.77344414 3.75906425 -12.125 3.9375 C-12.79015625 4.02451172 -13.4553125 4.11152344 -14.140625 4.20117188 C-18.10830188 4.72630558 -22.05626998 5.31814014 -26 6 C-25.67 4.68 -25.34 3.36 -25 2 C-16.60182604 0.08041738 -8.59599799 -0.22588024 0 0 Z " fill="#080808" transform="translate(75,4)"/>
<path d="M0 0 C-1.62249941 0.83819158 -3.24808497 1.6704116 -4.875 2.5 C-5.77992187 2.9640625 -6.68484375 3.428125 -7.6171875 3.90625 C-10 5 -10 5 -12 5 C-12.33 5.66 -12.66 6.32 -13 7 C-13.66 6.34 -14.32 5.68 -15 5 C-17.60280568 5.32041397 -17.60280568 5.32041397 -20 6 C-14.98986606 0.18824463 -7.08779016 -3.86471084 0 0 Z " fill="#CFCDCE" transform="translate(61,17)"/>
<path d="M0 0 C1 3 1 3 0.3125 5.4375 C-1.82710645 9.61482688 -3.84665667 11.55640641 -8.25 13.25 C-9.1575 13.4975 -10.065 13.745 -11 14 C-11 13.01 -11 12.02 -11 11 C-9.33333333 9.66666667 -7.66666667 8.33333333 -6 7 C-6 6.01 -6 5.02 -6 4 C-5.38125 3.71125 -4.7625 3.4225 -4.125 3.125 C-1.86674235 2.06279958 -1.86674235 2.06279958 0 0 Z " fill="#CBCBCB" transform="translate(101,74)"/>
<path d="M0 0 C6.27 0 12.54 0 19 0 C19 2.31 19 4.62 19 7 C18.4225 6.34 17.845 5.68 17.25 5 C12.91750729 2.33385064 9.62700294 2.7297175 4.64453125 2.95703125 C2 3 2 3 0 2 C0 1.34 0 0.68 0 0 Z " fill="#000000" transform="translate(159,25)"/>
<path d="M0 0 C2.33183607 0.67188497 4.66501142 1.33915417 7 2 C6.01 3.485 6.01 3.485 5 5 C4.01773438 4.80083984 4.01773438 4.80083984 3.015625 4.59765625 C-3.97606051 3.24474535 -10.89668212 2.47107518 -18 2 C-18 1.67 -18 1.34 -18 1 C-15.56348622 0.63737003 -13.12623023 0.28461036 -10.6875 -0.0625 C-9.99720703 -0.16626953 -9.30691406 -0.27003906 -8.59570312 -0.37695312 C-5.30415164 -0.83808836 -3.19783876 -1.06594625 0 0 Z " fill="#242424" transform="translate(78,6)"/>
<path d="M0 0 C1.32 0.66 2.64 1.32 4 2 C4 5 4 5 2.46875 6.82421875 C1.8190625 7.43910156 1.169375 8.05398437 0.5 8.6875 C-0.1496875 9.31011719 -0.799375 9.93273438 -1.46875 10.57421875 C-1.9740625 11.04472656 -2.479375 11.51523437 -3 12 C-3.625 10.1875 -3.625 10.1875 -4 8 C-3.34 7.01 -2.68 6.02 -2 5 C-3.32 5.99 -4.64 6.98 -6 8 C-4.55746343 4.63408134 -2.66735273 2.48952921 0 0 Z " fill="#B7B5B8" transform="translate(44,47)"/>
<path d="M0 0 C0.66 0.66 1.32 1.32 2 2 C1.67 2.99 1.34 3.98 1 5 C-1.0625 5.6875 -1.0625 5.6875 -3 6 C-3 6.99 -3 7.98 -3 9 C-4.65 9 -6.3 9 -8 9 C-8 9.99 -8 10.98 -8 12 C-9.32 12 -10.64 12 -12 12 C-10.4169423 7.7257442 -7.49431596 5.73468206 -4 3 C-3.34 3.33 -2.68 3.66 -2 4 C-1.34 2.68 -0.68 1.36 0 0 Z " fill="#D1D0D1" transform="translate(43,61)"/>
<path d="M0 0 C0.33 0.99 0.66 1.98 1 3 C1.99 2.67 2.98 2.34 4 2 C4 10.58 4 19.16 4 28 C3.67 28 3.34 28 3 28 C2.96261719 26.94941406 2.92523438 25.89882813 2.88671875 24.81640625 C2.5407259 16.96423873 1.76757642 10.42213677 -1 3 C-0.67 2.01 -0.34 1.02 0 0 Z " fill="#7D7C7E" transform="translate(108,35)"/>
<path d="M0 0 C2.15478516 -0.34057617 2.15478516 -0.34057617 4.7890625 -0.29296875 C5.73007813 -0.28330078 6.67109375 -0.27363281 7.640625 -0.26367188 C9.11789063 -0.2259668 9.11789063 -0.2259668 10.625 -0.1875 C12.11386719 -0.16719727 12.11386719 -0.16719727 13.6328125 -0.14648438 C16.08908072 -0.11105743 18.54427285 -0.06166196 21 0 C21.33 0.66 21.66 1.32 22 2 C19.49502996 3.25248502 17.79146726 3.11374406 14.9921875 3.09765625 C14.00605469 3.09443359 13.01992187 3.09121094 12.00390625 3.08789062 C10.97136719 3.07951172 9.93882812 3.07113281 8.875 3.0625 C7.31458984 3.05573242 7.31458984 3.05573242 5.72265625 3.04882812 C3.14838038 3.03701952 0.57421854 3.02055075 -2 3 C-1.34 2.01 -0.68 1.02 0 0 Z M1 1 C1 1.33 1 1.66 1 2 C6.28 2 11.56 2 17 2 C17 1.67 17 1.34 17 1 C11.72 1 6.44 1 1 1 Z " fill="#FEFDFE" transform="translate(207,39)"/>
<path d="M0 0 C4.09853712 3.40091378 7.84706592 6.87149881 11.5 10.75 C15.22248235 14.54910292 17.75568756 16.21893219 23 17 C22.34 17.99 21.68 18.98 21 20 C17.25608878 19.42897488 15.53065411 17.9053201 12.890625 15.25390625 C12.13652344 14.49916016 11.38242188 13.74441406 10.60546875 12.96679688 C9.82816406 12.17337891 9.05085938 11.37996094 8.25 10.5625 C7.45722656 9.77294922 6.66445312 8.98339844 5.84765625 8.16992188 C0 2.26690915 0 2.26690915 0 0 Z " fill="#583E3A" transform="translate(59,44)"/>
<path d="M0 0 C5.34877201 -0.31463365 9.41803187 0.65992302 13.5546875 4.1640625 C14.32039063 4.97617187 15.08609375 5.78828125 15.875 6.625 C16.65617187 7.44226562 17.43734375 8.25953125 18.2421875 9.1015625 C19.11230469 10.04128906 19.11230469 10.04128906 20 11 C19.67 11.66 19.34 12.32 19 13 C18.47792969 12.33871094 17.95585938 11.67742188 17.41796875 10.99609375 C13.08638154 5.79143941 13.08638154 5.79143941 6.953125 3.625 C4.22660076 3.90754137 1.6539993 4.32037775 -1 5 C-1 2 -1 2 0 0 Z " fill="#271517" transform="translate(39,32)"/>
<path d="M0 0 C4.59306496 1.4859916 7.43569245 3.85014682 11 7 C9.68 7.99 8.36 8.98 7 10 C3.535 8.02 3.535 8.02 0 6 C0.185625 5.38125 0.37125 4.7625 0.5625 4.125 C1.23686176 1.95839822 1.23686176 1.95839822 0 0 Z " fill="#B4B3B5" transform="translate(38,84)"/>
<path d="M0 0 C0.66 0 1.32 0 2 0 C2.66 1.98 3.32 3.96 4 6 C6.64 4.02 9.28 2.04 12 0 C9.98127747 4.03744506 7.91899872 6.62010675 5 10 C6.32 10.33 7.64 10.66 9 11 C9 11.66 9 12.32 9 13 C8.01 13.33 7.02 13.66 6 14 C2.84345952 9.41078616 0.42797202 5.70629354 0 0 Z " fill="#1F1F1F" transform="translate(26,63)"/>
<path d="M0 0 C4.56030824 3.80475422 8.85089392 7.74969621 13 12 C12.34 13.32 11.68 14.64 11 16 C8.5625 14.3125 8.5625 14.3125 6 12 C5.855625 11.195625 5.71125 10.39125 5.5625 9.5625 C4.69548171 5.61275003 2.18724861 4.37348301 -1 2 C-0.67 1.34 -0.34 0.68 0 0 Z " fill="#F9F8F7" transform="translate(57,44)"/>
<path d="M0 0 C4.30244023 0.72657103 6.33976247 1.38967764 9 5 C9.75 8.75 9.75 8.75 10 12 C8.203125 11.84765625 8.203125 11.84765625 6 11 C4.296875 8.49609375 4.296875 8.49609375 2.75 5.4375 C1.96882813 3.91962891 1.96882813 3.91962891 1.171875 2.37109375 C0.59179688 1.19740234 0.59179688 1.19740234 0 0 Z " fill="#2D2B2D" transform="translate(101,26)"/>
<path d="M0 0 C0.99 0.66 1.98 1.32 3 2 C1.02 2.33 -0.96 2.66 -3 3 C-3 3.66 -3 4.32 -3 5 C-7.455 6.485 -7.455 6.485 -12 8 C-11.67 7.34 -11.34 6.68 -11 6 C-10.34 6 -9.68 6 -9 6 C-8.71125 5.030625 -8.4225 4.06125 -8.125 3.0625 C-6.35611295 -1.75280364 -4.52868931 -1.2150142 0 0 Z " fill="#B5B6B5" transform="translate(56,10)"/>
<path d="M0 0 C0.99 0.33 1.98 0.66 3 1 C1.35 2.98 -0.3 4.96 -2 7 C0.64 5.02 3.28 3.04 6 1 C4.04783565 4.90432869 2.12613393 7.03839944 -1 10 C-2.32 9.34 -3.64 8.68 -5 8 C-5 5 -5 5 -2.5 2.3125 C-1.675 1.549375 -0.85 0.78625 0 0 Z " fill="#DBD9DA" transform="translate(85,50)"/>
<path d="M0 0 C2.9375 0.8125 2.9375 0.8125 6 2 C6.33 2.99 6.66 3.98 7 5 C7.928125 5.4640625 7.928125 5.4640625 8.875 5.9375 C13.06893514 8.03446757 14.46717867 11.755264 16 16 C10.35573231 11.31645873 4.9941954 6.3792354 0 1 C0 0.67 0 0.34 0 0 Z " fill="#0D0104" transform="translate(50,28)"/>
<path d="M0 0 C4.69267989 4.0409188 6.7650674 8.26908345 9 14 C8.01 14.495 8.01 14.495 7 15 C6.731875 14.195625 6.46375 13.39125 6.1875 12.5625 C5.795625 11.716875 5.40375 10.87125 5 10 C4.01 9.67 3.02 9.34 2 9 C0.61423077 7.37667033 -0.72641268 5.71275535 -2 4 C-1.01 3.67 -0.02 3.34 1 3 C0.67 2.01 0.34 1.02 0 0 Z " fill="#373537" transform="translate(94,27)"/>
<path d="M0 0 C3.4069998 -0.38937141 4.76368298 -0.15388085 7.6875 1.75 C9.80238063 3.80772169 10.93378478 5.28599761 12 8 C9.9375 8.4375 9.9375 8.4375 7 8 C4.4001393 5.90507092 2.13481125 3.56546482 0 1 C0 0.67 0 0.34 0 0 Z " fill="#F37F22" transform="translate(68,52)"/>
<path d="M0 0 C-0.99 0.66 -1.98 1.32 -3 2 C-2.34 3.65 -1.68 5.3 -1 7 C-3.8125 7.3125 -3.8125 7.3125 -7 7 C-8.875 4.5 -8.875 4.5 -10 2 C-6.5980513 -0.09350689 -3.94727588 -0.17942163 0 0 Z " fill="#737173" transform="translate(49,35)"/>
<path d="M0 0 C1 2 1 2 0.36328125 4.2421875 C-3.10930987 12.94302918 -3.10930987 12.94302918 -7 16 C-7 12.15704403 -6.78467597 11.11831611 -5.0625 7.9375 C-3.80646085 5.5919932 -2.8477343 3.54320289 -2 1 C-1.34 0.67 -0.68 0.34 0 0 Z " fill="#2B292C" transform="translate(103,61)"/>
<path d="M0 0 C2.3125 2.0625 2.3125 2.0625 4 4 C3.67 4.66 3.34 5.32 3 6 C-0.66881155 5.29445932 -3.70450534 3.72264494 -7 2 C-7 1.34 -7 0.68 -7 0 C-4.23382717 -1.38308641 -2.92591209 -0.90563946 0 0 Z " fill="#151515" transform="translate(90,10)"/>
<path d="M0 0 C0 3 0 3 -1 5 C-3.64 5 -6.28 5 -9 5 C-8.67 4.01 -8.34 3.02 -8 2 C-8.66 1.67 -9.32 1.34 -10 1 C-6.61981469 -0.04005702 -3.5219721 -0.08004482 0 0 Z " fill="#CAC9CA" transform="translate(84,90)"/>
<path d="M0 0 C0.93826619 3.06687009 1.01788333 5.45007796 0.625 8.625 C0.53476563 9.40101562 0.44453125 10.17703125 0.3515625 10.9765625 C0 13 0 13 -1 15 C-1.99 14.67 -2.98 14.34 -4 14 C-3.21824485 9.15311808 -1.60155722 4.6233633 0 0 Z " fill="#CDCCCE" transform="translate(110,63)"/>
<path d="M0 0 C0 0.66 0 1.32 0 2 C-0.87978516 2.36931641 -0.87978516 2.36931641 -1.77734375 2.74609375 C-4.34305497 4.19353365 -5.71261038 5.78221101 -7.5625 8.0625 C-10.67024793 11.89008264 -10.67024793 11.89008264 -14 13 C-12.4700928 9.39438086 -10.31303068 7.0140801 -7.5625 4.25 C-6.78003906 3.45078125 -5.99757813 2.6515625 -5.19140625 1.828125 C-3 0 -3 0 0 0 Z " fill="#F0EEF0" transform="translate(95,53)"/>
<path d="M0 0 C3.84223567 1.50944973 5.51995823 3.76843042 8 7 C8.886875 7.886875 9.77375 8.77375 10.6875 9.6875 C13 12 13 12 14 14 C10.84859577 13.65930765 9.39218439 13.41923159 7.1875 11.0625 C6 9 6 9 6 7 C5.34 7 4.68 7 4 7 C3.67 5.68 3.34 4.36 3 3 C2.34 3 1.68 3 1 3 C0.67 2.01 0.34 1.02 0 0 Z " fill="#292929" transform="translate(50,58)"/>
<path d="M0 0 C1.32 0 2.64 0 4 0 C5.75 2.5 5.75 2.5 7 5 C5.68 5.99 4.36 6.98 3 8 C1.35 6.02 -0.3 4.04 -2 2 C-1.34 1.34 -0.68 0.68 0 0 Z " fill="#556A5F" transform="translate(48,43)"/>
<path d="M0 0 C1.32 0.33 2.64 0.66 4 1 C4.33 2.32 4.66 3.64 5 5 C4.01 5.66 3.02 6.32 2 7 C2 6.34 2 5.68 2 5 C-0.31 6.65 -2.62 8.3 -5 10 C-3.33333333 6.66666667 -1.66666667 3.33333333 0 0 Z " fill="#171618" transform="translate(92,33)"/>
<path d="M0 0 C1.05767578 0.42925781 1.05767578 0.42925781 2.13671875 0.8671875 C5.01205232 2.00476831 7.90452186 3.07392356 10.8125 4.125 C11.78832031 4.47820312 12.76414062 4.83140625 13.76953125 5.1953125 C14.87361328 5.59363281 14.87361328 5.59363281 16 6 C16 6.33 16 6.66 16 7 C11.94093514 7.49702835 8.44190436 7.86984448 4.84375 5.69921875 C3.10625165 4.20739127 1.49469727 2.7350023 0 1 C0 0.67 0 0.34 0 0 Z " fill="#59575A" transform="translate(39,91)"/>
<path d="M0 0 C5.78461538 4.43076923 5.78461538 4.43076923 6.875 7.3125 C6.936875 8.1478125 6.936875 8.1478125 7 9 C4.62051228 8.82374165 3.29774151 8.30280227 1.62109375 6.59765625 C0.37884514 5.09350908 -0.81376056 3.54870149 -2 2 C-1.34 2 -0.68 2 0 2 C0 1.34 0 0.68 0 0 Z " fill="#2A8252" transform="translate(63,58)"/>
<path d="M0 0 C0.66 0 1.32 0 2 0 C1.54901762 1.93922422 1.08894441 3.87633594 0.625 5.8125 C0.36976562 6.89144531 0.11453125 7.97039063 -0.1484375 9.08203125 C-1 12 -1 12 -3 15 C-2.125 8.25 -2.125 8.25 -1 6 C-1.66 6 -2.32 6 -3 6 C-1.125 1.125 -1.125 1.125 0 0 Z M-5 6 C-4.01 6.495 -4.01 6.495 -3 7 C-3.99 7.495 -3.99 7.495 -5 8 C-5 7.34 -5 6.68 -5 6 Z " fill="#8D8D8D" transform="translate(27,31)"/>
<path d="M0 0 C0.66 0 1.32 0 2 0 C1.81640625 1.828125 1.81640625 1.828125 1 4 C-1.28515625 5.484375 -1.28515625 5.484375 -4.0625 6.75 C-5.44115234 7.39195313 -5.44115234 7.39195313 -6.84765625 8.046875 C-7.55792969 8.36140625 -8.26820312 8.6759375 -9 9 C-9.33 8.34 -9.66 7.68 -10 7 C-8.68 5.68 -7.36 4.36 -6 3 C-6 3.66 -6 4.32 -6 5 C-3.98079663 3.69593116 -1.98075027 2.36176581 0 1 C0 0.67 0 0.34 0 0 Z " fill="#181718" transform="translate(87,82)"/>
<path d="M0 0 C-0.33 1.32 -0.66 2.64 -1 4 C-9.03571429 6.27678571 -9.03571429 6.27678571 -13 5 C-11.39967863 4.15930585 -9.79458829 3.32768495 -8.1875 2.5 C-6.84751953 1.80390625 -6.84751953 1.80390625 -5.48046875 1.09375 C-3 0 -3 0 0 0 Z " fill="#D2D2D3" transform="translate(90,93)"/>
<path d="M0 0 C3.63 0.33 7.26 0.66 11 1 C11 2.32 11 3.64 11 5 C9.53890937 4.74445946 8.08111904 4.46999628 6.625 4.1875 C5.81289062 4.03667969 5.00078125 3.88585937 4.1640625 3.73046875 C2 3 2 3 0 0 Z " fill="#A9A8A9" transform="translate(78,70)"/>
<path d="M0 0 C0.66 0 1.32 0 2 0 C2 0.66 2 1.32 2 2 C2.99 2.33 3.98 2.66 5 3 C3.75023244 6.65316671 3.32901247 7.78065836 0 10 C0 6.7 0 3.4 0 0 Z " fill="#010001" transform="translate(87,28)"/>
<path d="M0 0 C1.16959987 0.97566112 2.33561177 1.955625 3.5 2.9375 C4.1496875 3.48277344 4.799375 4.02804688 5.46875 4.58984375 C6.22671875 5.28787109 6.22671875 5.28787109 7 6 C7 6.33 7 6.66 7 7 C4.75 7.3125 4.75 7.3125 2 7 C-0.3125 4.5 -0.3125 4.5 -2 2 C-1.34 2 -0.68 2 0 2 C0 1.34 0 0.68 0 0 Z " fill="#57DB95" transform="translate(79,74)"/>
<path d="M0 0 C0.33 0 0.66 0 1 0 C2.56465924 14.06078913 2.56465924 14.06078913 0 20 C-0.66 20.33 -1.32 20.66 -2 21 C-2 19.35 -2 17.7 -2 16 C-1.34 16 -0.68 16 0 16 C0 10.72 0 5.44 0 0 Z " fill="#8E8E8E" transform="translate(23,47)"/>
<path d="M0 0 C3.80635497 3.20760251 7.54563567 6.40746109 11 10 C10.67 10.99 10.34 11.98 10 13 C8.32722165 11.21371169 6.66175557 9.4214925 5 7.625 C4.28457031 6.86316406 4.28457031 6.86316406 3.5546875 6.0859375 C0 2.2265625 0 2.2265625 0 0 Z " fill="#364037" transform="translate(51,51)"/>
<path d="M0 0 C0.33 0.66 0.66 1.32 1 2 C3.97 2 6.94 2 10 2 C9.67 2.66 9.34 3.32 9 4 C6.36 4 3.72 4 1 4 C0.67 4.99 0.34 5.98 0 7 C-0.66 5.35 -1.32 3.7 -2 2 C-1.34 1.34 -0.68 0.68 0 0 Z " fill="#010002" transform="translate(159,42)"/>
<path d="M0 0 C3.78611227 0.54087318 5.55400767 2.11722332 8 5 C8 5.66 8 6.32 8 7 C5.13275314 6.42655063 4.1385485 6.1385485 2 4 C1.01 4 0.02 4 -1 4 C-0.67 2.68 -0.34 1.36 0 0 Z " fill="#66585A" transform="translate(40,27)"/>
<path d="M0 0 C3.66060821 0.58536753 5.54535164 2.083239 8.25 4.5625 C8.95640625 5.20316406 9.6628125 5.84382813 10.390625 6.50390625 C10.92171875 6.99761719 11.4528125 7.49132812 12 8 C11.01 8.495 11.01 8.495 10 9 C6.26688182 6.62437934 2.96275219 4.30460821 0 1 C0 0.67 0 0.34 0 0 Z " fill="#807F80" transform="translate(31,86)"/>
<path d="M0 0 C1.625 1.6875 1.625 1.6875 3 4 C2.1875 6.75 2.1875 6.75 1 9 C0.67 7.68 0.34 6.36 0 5 C-1.65 6.32 -3.3 7.64 -5 9 C-3.7508258 5.54074837 -2.32472205 2.85306797 0 0 Z " fill="#DAD8DB" transform="translate(101,70)"/>
<path d="M0 0 C0 0.66 0 1.32 0 2 C-1.70940029 3.60228383 -3.53301528 5.01294742 -5.37109375 6.46484375 C-7.26558258 8.00756886 -7.26558258 8.00756886 -8 11 C-8.99 11 -9.98 11 -11 11 C-9.60249952 7.84164893 -7.94801766 5.67727175 -5.5 3.25 C-4.8915625 2.63640625 -4.283125 2.0228125 -3.65625 1.390625 C-2 0 -2 0 0 0 Z " fill="#464447" transform="translate(102,43)"/>
<path d="M0 0 C-4.455 2.97 -4.455 2.97 -9 6 C-8.67 4.35 -8.34 2.7 -8 1 C-2.25 -1.125 -2.25 -1.125 0 0 Z " fill="#D6D6D6" transform="translate(95,87)"/>
<path d="M0 0 C3.25543229 0.34879632 4.01873107 1.02133261 6.25 3.5625 C6.8275 4.366875 7.405 5.17125 8 6 C7.67 6.66 7.34 7.32 7 8 C5.35 8 3.7 8 2 8 C2.99 7.34 3.98 6.68 5 6 C3.35 4.02 1.7 2.04 0 0 Z " fill="#245A3A" transform="translate(80,74)"/>
<path d="M0 0 C1.485 0.99 1.485 0.99 3 2 C4.32567199 2.68177416 5.65753688 3.35191436 7 4 C7 5.32 7 6.64 7 8 C5.1875 7.8125 5.1875 7.8125 3 7 C0 2.82142857 0 2.82142857 0 0 Z " fill="#989898" transform="translate(25,74)"/>
<path d="M0 0 C0.66 0.33 1.32 0.66 2 1 C2 4.76687864 1.76462683 5.91190305 0 9 C-0.99 7.68 -1.98 6.36 -3 5 C-1.125 1.125 -1.125 1.125 0 0 Z " fill="#030104" transform="translate(98,53)"/>
<path d="M0 0 C-5.75 3 -5.75 3 -8 3 C-8.33 1.68 -8.66 0.36 -9 -1 C-5.22102349 -2.0497157 -3.35080929 -2.10976881 0 0 Z " fill="#BBBABA" transform="translate(61,17)"/>
<path d="M0 0 C2 1.3125 2 1.3125 4 3 C4 3.99 4 4.98 4 6 C2.125 5.6875 2.125 5.6875 0 5 C-0.66 4.01 -1.32 3.02 -2 2 C-1.34 1.34 -0.68 0.68 0 0 Z " fill="#46CB82" transform="translate(75,70)"/>
<path d="M0 0 C0.99 0.33 1.98 0.66 3 1 C4.1875 3.5625 4.1875 3.5625 5 6 C3.68 6.33 2.36 6.66 1 7 C0.67 4.69 0.34 2.38 0 0 Z " fill="#2A2A2A" transform="translate(21,71)"/>
<path d="M0 0 C1.65 0.33 3.3 0.66 5 1 C5 1.66 5 2.32 5 3 C3.88625 3.12375 3.88625 3.12375 2.75 3.25 C-0.51221354 4.1396946 -1.80954878 5.48503749 -4 8 C-3.40072174 4.64404172 -2.15377564 2.62198774 0 0 Z " fill="#D9D9D9" transform="translate(34,29)"/>
<path d="M0 0 C2.8125 -0.25 2.8125 -0.25 6 0 C7.875 2 7.875 2 9 4 C7.68 3.67 6.36 3.34 5 3 C4.67 3.66 4.34 4.32 4 5 C2.68 3.35 1.36 1.7 0 0 Z " fill="#CE572C" transform="translate(41,25)"/>
<path d="M0 0 C2 1.3125 2 1.3125 4 3 C4 3.99 4 4.98 4 6 C2.125 5.6875 2.125 5.6875 0 5 C-0.66 4.01 -1.32 3.02 -2 2 C-1.34 2 -0.68 2 0 2 C0 1.34 0 0.68 0 0 Z " fill="#1A603B" transform="translate(59,54)"/>
<path d="M0 0 C1.98 0 3.96 0 6 0 C6.66 1.32 7.32 2.64 8 4 C5.69 3.67 3.38 3.34 1 3 C0.67 2.01 0.34 1.02 0 0 Z " fill="#C8C6C9" transform="translate(53,92)"/>
<path d="M0 0 C1.9375 0.8125 1.9375 0.8125 4 2 C4.33 2.99 4.66 3.98 5 5 C2 6 2 6 -1 5 C-1 4.34 -1 3.68 -1 3 C-0.34 2.67 0.32 2.34 1 2 C0.67 1.34 0.34 0.68 0 0 Z " fill="#010002" transform="translate(53,68)"/>
<path d="M0 0 C3.78125 0.7578125 3.78125 0.7578125 5.75 2.9375 C7 5 7 5 7 7 C6.34 7 5.68 7 5 7 C3.7109375 5.46875 3.7109375 5.46875 2.375 3.5 C1.70597656 2.52546875 1.70597656 2.52546875 1.0234375 1.53125 C0.68570313 1.0259375 0.34796875 0.520625 0 0 Z " fill="#E0E0DE" transform="translate(66,73)"/>
<path d="M0 0 C0.99 0.66 1.98 1.32 3 2 C2.67 3.32 2.34 4.64 2 6 C0 4.625 0 4.625 -2 3 C-2 2.34 -2 1.68 -2 1 C-1.34 0.67 -0.68 0.34 0 0 Z " fill="#040404" transform="translate(35,75)"/>
<path d="M0 0 C1.32 0 2.64 0 4 0 C4.66 1.32 5.32 2.64 6 4 C4.35 4 2.7 4 1 4 C0.67 2.68 0.34 1.36 0 0 Z " fill="#E77619" transform="translate(74,56)"/>
<path d="M0 0 C3.37503669 1.1858237 5.64722731 2.27573689 8 5 C6.02 5 4.04 5 2 5 C1.34 3.35 0.68 1.7 0 0 Z " fill="#BBB9BB" transform="translate(38,84)"/>
<path d="M0 0 C1.20628008 2.33214148 2.1654738 4.49642139 3 7 C1.68 6.67 0.36 6.34 -1 6 C-1.625 4.125 -1.625 4.125 -2 2 C-1.34 1.34 -0.68 0.68 0 0 Z " fill="#121212" transform="translate(20,64)"/>
<path d="M0 0 C3.36720387 1.39332574 4.9859524 2.9789286 7 6 C6.443125 5.690625 5.88625 5.38125 5.3125 5.0625 C2.87459567 3.94238179 0.63775814 3.43962636 -2 3 C-1.34 2.01 -0.68 1.02 0 0 Z " fill="#E3E7E5" transform="translate(49,52)"/>
<path d="M0 0 C1.5 1.3125 1.5 1.3125 3 3 C3 3.99 3 4.98 3 6 C1.68 6 0.36 6 -1 6 C-0.67 4.02 -0.34 2.04 0 0 Z " fill="#CAC8C9" transform="translate(99,26)"/>
<path d="M0 0 C0.66 0.66 1.32 1.32 2 2 C0.35 3.65 -1.3 5.3 -3 7 C-3.99 6.67 -4.98 6.34 -6 6 C-4 4 -2 2 0 0 Z " fill="#161616" transform="translate(35,15)"/>
<path d="M0 0 C2.91517292 1.07401108 4.77810176 1.77810176 7 4 C4.03 3.505 4.03 3.505 1 3 C0.67 2.01 0.34 1.02 0 0 Z " fill="#89878A" transform="translate(119,73)"/>
<path d="M0 0 C1.32 0.99 2.64 1.98 4 3 C3.67 3.99 3.34 4.98 3 6 C0 2.25 0 2.25 0 0 Z " fill="#959595" transform="translate(35,91)"/>
<path d="M0 0 C0.33 0.99 0.66 1.98 1 3 C-0.65 3 -2.3 3 -4 3 C-4 2.34 -4 1.68 -4 1 C-2 0 -2 0 0 0 Z " fill="#343334" transform="translate(96,94)"/>
<path d="M0 0 C0.33 0 0.66 0 1 0 C1 1.65 1 3.3 1 5 C0.67 5 0.34 5 0 5 C0 3.35 0 1.7 0 0 Z " fill="#020202" transform="translate(23,23)"/>
<path d="M0 0 C0.99 0.495 0.99 0.495 2 1 C1.67 1.66 1.34 2.32 1 3 C0.67 2.01 0.34 1.02 0 0 Z " fill="#020003" transform="translate(70,39)"/>
<path d="M0 0 C3 1 3 1 3 1 Z " fill="#030104" transform="translate(122,78)"/>
<path d="M0 0 C0.99 0.495 0.99 0.495 2 1 C1.01 1.495 1.01 1.495 0 2 C0 1.34 0 0.68 0 0 Z " fill="#FFFDFF" transform="translate(287,58)"/>
<path d="M0 0 C2 1 2 1 2 1 Z " fill="#010002" transform="translate(60,76)"/>
<path d="M0 0 C2 1 2 1 2 1 Z " fill="#010002" transform="translate(50,74)"/>
<path d="M0 0 C2 1 2 1 2 1 Z " fill="#838284" transform="translate(119,69)"/>
<path d="" fill="#FFFDFF" transform="translate(0,0)"/>
<path d="" fill="#010002" transform="translate(0,0)"/>
<path d="M0 0 C2 1 2 1 2 1 Z " fill="#FEFCFF" transform="translate(176,44)"/>
<path d="" fill="#010102" transform="translate(0,0)"/>
<path d="M0 0 C2 1 2 1 2 1 Z " fill="#C4C2C3" transform="translate(87,26)"/>
<path d="M0 0 C2 1 2 1 2 1 Z " fill="#020202" transform="translate(95,13)"/>
<path d="" fill="#848484" transform="translate(0,0)"/>
<path d="" fill="#D3D1D2" transform="translate(0,0)"/>
<path d="" fill="#E8E7E5" transform="translate(0,0)"/>
<path d="" fill="#000000" transform="translate(0,0)"/>
<path d="" fill="#010002" transform="translate(0,0)"/>
<path d="" fill="#62635E" transform="translate(0,0)"/>
<path d="" fill="#010002" transform="translate(0,0)"/>
<path d="" fill="#DDDDDD" transform="translate(0,0)"/>
<path d="" fill="#FFFDFF" transform="translate(0,0)"/>
<path d="" fill="#FCFAFD" transform="translate(0,0)"/>
<path d="" fill="#010002" transform="translate(0,0)"/>
<path d="" fill="#FFFDFF" transform="translate(0,0)"/>
<path d="" fill="#F8F6F9" transform="translate(0,0)"/>
<path d="" fill="#E8E6E9" transform="translate(0,0)"/>
<path d="" fill="#FFFEFF" transform="translate(0,0)"/>
<path d="" fill="#FEFCFF" transform="translate(0,0)"/>
<path d="" fill="#FFFDFF" transform="translate(0,0)"/>
<path d="" fill="#FFFDFF" transform="translate(0,0)"/>
<path d="" fill="#040203" transform="translate(0,0)"/>
<path d="" fill="#FEFCFF" transform="translate(0,0)"/>
<path d="" fill="#FEFCFF" transform="translate(0,0)"/>
<path d="" fill="#080808" transform="translate(0,0)"/>
<path d="" fill="#000005" transform="translate(0,0)"/>
<path d="" fill="#191919" transform="translate(0,0)"/>
<path d="" fill="#020202" transform="translate(0,0)"/>
<path d="" fill="#555354" transform="translate(0,0)"/>
<path d="" fill="#030102" transform="translate(0,0)"/>
<path d="" fill="#030102" transform="translate(0,0)"/>
<path d="" fill="#373536" transform="translate(0,0)"/>
<path d="" fill="#000000" transform="translate(0,0)"/>
<path d="" fill="#000000" transform="translate(0,0)"/>
</svg>
